<svg id="a683c47b-bf5f-4f3c-b589-6df1139036fb" data-name="base" xmlns="http://www.w3.org/2000/svg" width="240" height="80" viewBox="0 0 240 80"><defs><style>.f66953d4-c534-407d-bfa4-a19085835ecd{fill:#e8008a;}</style></defs><title>foot_banner_shop</title><polygon points="121.55 64.45 117.45 64.45 117.45 61.02 116.45 61.02 116.37 69.58 117.48 69.58 117.48 65.51 121.61 65.51 121.61 69.58 122.66 69.58 122.66 61.02 121.55 61.02 121.55 64.45"/><path d="M124.62,69.61h1.14s.43-1,.95-2.13h4l1,2.16,1.14,0-4.1-9Zm2.58-3.21,1.46-3.25,1.51,3.23Z"/><path d="M111.47,37.87h-14s2.78,1.48,3.7,1.92a13,13,0,0,1,2.54,1.63h7.84l0,16.54h3.77V24.35h-3.77Z"/><path d="M107.2,65.42a4.39,4.39,0,0,0,4.49,4.35,4.45,4.45,0,0,0,2.22-.62V68a3.89,3.89,0,0,1-2.25.74,3.31,3.31,0,0,1-3.34-3.38,3.5,3.5,0,0,1,3.25-3.5,3.71,3.71,0,0,1,2.39.8V61.33a8.78,8.78,0,0,0-2.45-.49,4.55,4.55,0,0,0-4.31,4.58"/><polygon points="90.49 42.2 90.47 58.12 94.09 58.12 94.09 43.95 90.49 42.2"/><polygon points="94.17 36.19 94.17 24.32 90.5 24.32 90.5 34.23 94.17 36.19"/><path d="M99.83,40.86c-2.28-1.16-11.21-5.77-14.4-7.4-2.92-1.48-7.5-4.47-7.5-9.73,0-4.3,3.09-11.86,12.07-11.86a14.21,14.21,0,0,1,12.32,7.35l2.89-2.38A17.34,17.34,0,0,0,90.2,8C81.74,8,74,13.43,74,24.34c0,6.25,4.56,9.78,7.3,11.16,1.52.75,12.12,6.33,14.24,7.39s8.67,4.46,8.67,11.15S97.45,68.38,88.83,68.38s-13-6.32-15.16-11.4l-3.54,1.67S74.89,72,88,72c13.62,0,20.18-10.32,20.18-17.89a14.36,14.36,0,0,0-8.32-13.23"/><polygon points="151.35 67.24 144.91 60.61 144.91 69.61 145.99 69.61 145.99 63.18 152.38 69.98 152.38 61.02 151.35 61.02 151.35 67.24"/><polygon points="155.19 69.58 159.75 69.58 159.75 68.62 156.25 68.62 156.25 65.37 159.66 65.37 159.66 64.34 156.22 64.34 156.22 61.95 159.75 61.95 159.75 61.04 155.22 61.04 155.19 69.58"/><polygon points="163.41 61.07 162.31 61.07 162.33 69.58 166.01 69.58 166.01 68.62 163.41 68.62 163.41 61.07"/><polygon points="141.18 67.23 134.75 60.6 134.75 69.6 135.83 69.6 135.83 63.17 142.21 69.97 142.21 61 141.18 61 141.18 67.23"/><path d="M152,41.25c0-10.35-8.4-18.08-18.74-18.08a18.61,18.61,0,0,0-18,18.63c0,8.64,7.27,18.08,18.19,18.08A18.26,18.26,0,0,0,152,41.25M133.51,56C124,56,119.2,47.19,119.2,42.4c0-11,8.56-15.35,14-15.35,12.27,0,15.18,10.45,15.18,14.69A14.73,14.73,0,0,1,133.51,56"/><path d="M165.42,25.72a12.31,12.31,0,0,0-5.76-1.41h-7.41V58H156V43.25s.92,0,2.41,0a21.64,21.64,0,0,0,5.4-.69,8.89,8.89,0,0,0,6.1-8.61c0-3.66-1.41-6.55-4.45-8.26m-5.51,14c-2,.09-3.9.07-3.9.07V27.88a36.53,36.53,0,0,1,3.68,0c1.63.11,6.44.39,6.44,5.64,0,4.77-3.39,6-6.22,6.16"/><path class="f66953d4-c534-407d-bfa4-a19085835ecd" d="M133.73,38.5a2.91,2.91,0,0,0,0,5.82,2.91,2.91,0,0,0,2.93-3,2.85,2.85,0,0,0-2.93-2.85"/></svg>