<svg id="a939cada-8e48-46b3-af04-cc9963c9e01e" data-name="base" xmlns="http://www.w3.org/2000/svg" width="240" height="80" viewBox="0 0 240 80"><defs><style>.b9199c28-c601-4ea4-a0f1-a198016bf738{fill:#595757;}.aebeddaf-d452-481e-99df-a301d2738d5e{fill:#e74566;}.a4b6a322-477d-48bd-85f2-a7f6db38d96c{fill:#5c2500;}.bdf1554a-9184-4b96-aa02-676c222c7718{fill:#fff;}</style></defs><title>foot_banner_kachimai</title><path class="b9199c28-c601-4ea4-a0f1-a198016bf738" d="M29.14,49.62c-.62-1-1.43-2.37-3-2.37a1,1,0,0,0-1.09,1v7.39a.94.94,0,0,0,1,1h.74v.45H22.45v-.45h.7a1,1,0,0,0,1-1V48.29c0-.86-.57-1-1.1-1-1.55,0-2.39,1.35-3,2.37l-.35-.18,1-2.66h7.71l1.05,2.66Z"/><path class="b9199c28-c601-4ea4-a0f1-a198016bf738" d="M33.7,57.44a3.68,3.68,0,0,1,0-7.27,3.68,3.68,0,0,1,0,7.27m0-6.85c-1.41,0-2.15,1.54-2.15,3.23S32.29,57,33.7,57s2.15-1.39,2.15-3.21c0-1.63-.71-3.21-2.15-3.21"/><path class="b9199c28-c601-4ea4-a0f1-a198016bf738" d="M42.55,57.17v-.45H43a.36.36,0,0,0,.37-.35.6.6,0,0,0-.13-.35l-1.87-2.59L40.22,54.5v1.18c0,.89.21,1,.84,1h.2v.45H38.34v-.45h.32c.64,0,.73-.44.73-1V48c0-.32-.1-.66-.51-.66a2,2,0,0,0-.34.05l-.08-.3,1.76-.53v7.36l2.4-2.31a.47.47,0,0,0,.16-.34c0-.22-.13-.34-.42-.34h-.52v-.45h3.53v.45h-.21a2.62,2.62,0,0,0-1.95.76L42,52.84l2.12,3c.21.31.71.92,1.3.92h.22v.45Z"/><path class="b9199c28-c601-4ea4-a0f1-a198016bf738" d="M52.53,57.44c-.89,0-.94-.86-.94-1.21a3.54,3.54,0,0,1-2.42,1.21c-1.31,0-2-.68-2-1.52a2.06,2.06,0,0,1,.91-1.58A8.45,8.45,0,0,1,51.59,53v-.94A1.51,1.51,0,0,0,51.21,51a1.69,1.69,0,0,0-1.16-.4,1.15,1.15,0,0,0-1.27.9c0,.27-.09.81-.67.81a.63.63,0,0,1-.63-.62c0-.87,1.29-1.51,2.67-1.51,1.21,0,2.29.37,2.29,1.71v4.2c0,.5.26.68.63.68a.48.48,0,0,0,.48-.28l.15.1a1.3,1.3,0,0,1-1.17.86m-.94-4a5.46,5.46,0,0,0-2.52,1.09,2,2,0,0,0-.84,1.34,1.08,1.08,0,0,0,1.19,1,3.16,3.16,0,0,0,2.17-1.11Z"/><path class="b9199c28-c601-4ea4-a0f1-a198016bf738" d="M58.14,57.44c-2.52,0-3.17-2.12-3.17-3.5a3.48,3.48,0,0,1,3.27-3.77c.88,0,2.31.5,2.31,1.37a.71.71,0,0,1-.68.71.69.69,0,0,1-.67-.59c-.08-.49-.17-1.07-1-1.07-1.39,0-2.21,1.71-2.21,3.24s.87,3.07,2.33,3.07a3.35,3.35,0,0,0,2.38-1.32l.24.21a3.13,3.13,0,0,1-2.8,1.65"/><path class="b9199c28-c601-4ea4-a0f1-a198016bf738" d="M66.51,57.17v-.45h.37c.64,0,.81-.43.81-1V52.59c0-.86-.26-1.81-1.3-1.81a2.93,2.93,0,0,0-2.18,1.37v3.53c0,.57.2,1,.87,1h.26v.45h-3v-.45h.23c.63,0,.8-.43.8-1v-7.8c0-.39-.11-.62-.44-.62a2,2,0,0,0-.55.09L62.34,47l1.87-.51v5.07a3.31,3.31,0,0,1,2.5-1.42c1.48,0,1.8,1.14,1.8,2.09v3.42c0,.55.18,1,.87,1h.2v.45Z"/><path class="b9199c28-c601-4ea4-a0f1-a198016bf738" d="M71,57.17v-.45h.23c.63,0,.81-.42.81-1V51.52a.6.6,0,0,0-.54-.65,1.48,1.48,0,0,0-.4.06L71,50.62l1.88-.55v5.61c0,1,.6,1,1,1v.45ZM72.44,48a.71.71,0,0,1-.72-.73.7.7,0,0,1,.72-.71.72.72,0,1,1,0,1.44"/><path class="b9199c28-c601-4ea4-a0f1-a198016bf738" d="M89.57,57.17v-.45H90a.94.94,0,0,0,1-1V47.37l-3.9,9.8h-.4l-3.74-9.8v8.31a.94.94,0,0,0,1,1h.29v.45H81.07v-.45h.35a.94.94,0,0,0,1-1V48.29a.94.94,0,0,0-1-1h-.35v-.47h2.62l3.44,9,3.59-9h2.59v.47h-.43a.94.94,0,0,0-1,1v7.39a1,1,0,0,0,1,1h.43v.45Z"/><path class="b9199c28-c601-4ea4-a0f1-a198016bf738" d="M100.55,57.44c-.89,0-.94-.86-.94-1.21a3.5,3.5,0,0,1-2.42,1.21c-1.31,0-1.94-.68-1.94-1.52a2.09,2.09,0,0,1,.9-1.58A8.51,8.51,0,0,1,99.61,53v-.94A1.51,1.51,0,0,0,99.23,51a1.66,1.66,0,0,0-1.15-.4,1.15,1.15,0,0,0-1.27.9c0,.27-.1.81-.67.81a.63.63,0,0,1-.64-.62c0-.87,1.29-1.51,2.68-1.51,1.21,0,2.29.37,2.29,1.71v4.2c0,.5.25.68.62.68a.48.48,0,0,0,.49-.28l.14.1a1.28,1.28,0,0,1-1.17.86m-.94-4a5.47,5.47,0,0,0-2.51,1.09,2,2,0,0,0-.85,1.34,1.09,1.09,0,0,0,1.2,1,3.13,3.13,0,0,0,2.16-1.11Z"/><path class="b9199c28-c601-4ea4-a0f1-a198016bf738" d="M102.81,57.17v-.45H103c.63,0,.81-.42.81-1V51.52a.6.6,0,0,0-.54-.65,1.53,1.53,0,0,0-.4.06l-.07-.31,1.89-.55v5.61c0,1,.6,1,1,1v.45ZM104.27,48a.71.71,0,0,1-.72-.73.72.72,0,0,1,1.44,0,.71.71,0,0,1-.72.73"/><path class="b9199c28-c601-4ea4-a0f1-a198016bf738" d="M111.37,57.17v-.45h.36c.63,0,.81-.43.81-1V52.44c0-.66-.2-1.62-1.31-1.62A3.36,3.36,0,0,0,109,52.15v3.53c0,.57.17,1,.84,1h.37v.45H107.1v-.45h.27c.63,0,.79-.43.79-1V51.55c0-.28-.18-.64-.52-.64a1.58,1.58,0,0,0-.41.06l-.07-.3,1.85-.56v1.44a3.52,3.52,0,0,1,2.46-1.38,1.84,1.84,0,0,1,1.9,2.08v3.43c0,.64.13,1,.75,1h.37v.45Z"/><path class="b9199c28-c601-4ea4-a0f1-a198016bf738" d="M115.84,57.17v-.45h.23c.62,0,.81-.42.81-1V51.52a.61.61,0,0,0-.54-.65,1.48,1.48,0,0,0-.4.06l-.07-.31,1.88-.55v5.61c0,1,.6,1,1,1v.45ZM117.3,48a.73.73,0,0,1-.74-.73.73.73,0,1,1,.74.73"/><path class="b9199c28-c601-4ea4-a0f1-a198016bf738" d="M123.58,57.44c-2.52,0-3.15-2.12-3.15-3.5a3.46,3.46,0,0,1,3.25-3.77c.88,0,2.3.5,2.3,1.37a.7.7,0,0,1-.67.71.68.68,0,0,1-.66-.59c-.09-.49-.18-1.07-1-1.07-1.37,0-2.19,1.71-2.19,3.24s.86,3.07,2.32,3.07a3.37,3.37,0,0,0,2.38-1.32l.24.21a3.14,3.14,0,0,1-2.8,1.65"/><path class="b9199c28-c601-4ea4-a0f1-a198016bf738" d="M132,57.17v-.45h.37c.64,0,.81-.43.81-1V52.59c0-.86-.27-1.81-1.3-1.81a2.93,2.93,0,0,0-2.18,1.37v3.53c0,.57.2,1,.87,1h.26v.45h-3v-.45H128c.63,0,.8-.43.8-1v-7.8c0-.39-.11-.62-.44-.62a2,2,0,0,0-.54.09l-.08-.32,1.88-.51v5.07a3.29,3.29,0,0,1,2.5-1.42c1.47,0,1.8,1.14,1.8,2.09v3.42c0,.55.17,1,.87,1h.2v.45Z"/><path class="b9199c28-c601-4ea4-a0f1-a198016bf738" d="M136.42,57.17v-.45h.24c.62,0,.81-.42.81-1V51.52a.61.61,0,0,0-.54-.65,1.48,1.48,0,0,0-.4.06l-.07-.31,1.88-.55v5.61c0,1,.59,1,1,1v.45ZM137.88,48a.72.72,0,0,1-.73-.73.73.73,0,1,1,.73.73"/><path class="b9199c28-c601-4ea4-a0f1-a198016bf738" d="M156.19,47.25c-.8,0-1.3.6-1.3,1.58v8.34h-.44l-6.06-9.48V55.4c0,.73.42,1.32,1,1.32h.69v.45h-3.8v-.45h.61c.58,0,1-.63,1-1.32v-7a1.14,1.14,0,0,0-1.13-1.17h-.48v-.47h2.58l5.55,8.65v-6.6c0-1.58-1.07-1.58-1.48-1.58v-.47h3.47v.47Z"/><path class="b9199c28-c601-4ea4-a0f1-a198016bf738" d="M161.15,57.44c-2.66,0-3.18-2.39-3.18-3.62,0-1.83,1-3.65,3-3.65a2.59,2.59,0,0,1,2.29,1.25,4,4,0,0,1,.63,2H159c-.1,3.4,2.17,3.46,2.45,3.46a2.69,2.69,0,0,0,2.21-1.32l.33.27a3.3,3.3,0,0,1-2.85,1.59M161,50.59c-1.61,0-1.85,1.73-1.95,2.38h3.81c-.1-1.84-1-2.38-1.86-2.38"/><path class="b9199c28-c601-4ea4-a0f1-a198016bf738" d="M175,52.09,173,57.44h-.21L171,52.67l-1.79,4.77h-.23l-2.24-5.76c-.29-.77-.58-.79-1-.79v-.45h2.73v.45h-.35c-.27,0-.53.13-.53.43a1.92,1.92,0,0,0,.15.63l1.56,4L170.7,52l-.08-.23c-.31-.85-.83-.87-1.12-.87v-.45h2.86v.45h-.22c-.25,0-.68.1-.68.52a1.66,1.66,0,0,0,.06.31l1.55,4.12,1.52-4a1.22,1.22,0,0,0,.07-.41.6.6,0,0,0-.64-.58h-.3v-.45h2.71v.47c-.39,0-1,0-1.41,1.18"/><path class="b9199c28-c601-4ea4-a0f1-a198016bf738" d="M181.28,57.44a3.07,3.07,0,0,1-1.08-.22,1.35,1.35,0,0,0-.46-.11,2.32,2.32,0,0,0-.91.33L178,55.15l.38-.17a3.7,3.7,0,0,0,.9,1.17,3,3,0,0,0,1.9.8,1.33,1.33,0,0,0,1.41-1.36c0-.91-.75-1.12-2.09-1.48s-2.34-.79-2.34-2a1.9,1.9,0,0,1,2-2,2.45,2.45,0,0,1,.93.17,1.36,1.36,0,0,0,.47.1,1.21,1.21,0,0,0,.68-.27l.87,2.06-.28.13c-.53-.67-1.43-1.81-2.59-1.81a1.33,1.33,0,0,0-1.33,1.34c0,.84.78,1,2.1,1.35,1.05.26,2.42.67,2.42,2.15a2,2,0,0,1-2.14,2"/><path class="aebeddaf-d452-481e-99df-a301d2738d5e" d="M203.4,47.25c-.81,0-1.08.71-1.24,1.34l-2.3,8.85h-.26l-2.33-8.08-2.53,8.08h-.22l-2.42-9c-.19-.67-.59-1.15-1.27-1.15h-.29v-.47h3.61v.47h-.37c-.43,0-.8.21-.8.64a2.36,2.36,0,0,0,.07.57l1.85,6.94L197,48.56l-.13-.44a1,1,0,0,0-1-.87h-.46v-.47h3.62v.47h-.4c-.54,0-.78.24-.78.67a2,2,0,0,0,.08.47l2,6.89,1.76-6.65a4,4,0,0,0,.1-.7.71.71,0,0,0-.74-.68h-.56v-.47h3.3v.47Z"/><path class="aebeddaf-d452-481e-99df-a301d2738d5e" d="M207.7,57.44c-2.66,0-3.17-2.39-3.17-3.62,0-1.83,1-3.65,3-3.65a2.59,2.59,0,0,1,2.29,1.25,4.11,4.11,0,0,1,.63,2h-4.93c-.1,3.4,2.18,3.46,2.45,3.46a2.71,2.71,0,0,0,2.22-1.32l.33.27a3.31,3.31,0,0,1-2.85,1.59m-.17-6.85c-1.61,0-1.86,1.73-1.95,2.38h3.8c-.1-1.84-1-2.38-1.85-2.38"/><path class="aebeddaf-d452-481e-99df-a301d2738d5e" d="M216.31,57.44a3.06,3.06,0,0,1-2.25-1.18l-.6,1.18h-.22V48.11c0-.43-.14-.76-.64-.76a2.14,2.14,0,0,0-.49.08l-.07-.31,2-.58v4.84a2.83,2.83,0,0,1,2.28-1.21,2.51,2.51,0,0,1,1.79.74,4.15,4.15,0,0,1,1,2.94c0,2.54-1.5,3.59-2.79,3.59m-.24-6.66a2.39,2.39,0,0,0-2,1.25v3.56a2.82,2.82,0,0,0,2,1.27c.89,0,2.08-.91,2.08-3,0-1.2-.38-3-2.05-3"/><path class="aebeddaf-d452-481e-99df-a301d2738d5e" d="M228.06,40.78H183a1.27,1.27,0,0,1-1.27-1.26V23.82A1.26,1.26,0,0,1,183,22.56h45.06a1.26,1.26,0,0,1,1.27,1.26v15.7a1.27,1.27,0,0,1-1.27,1.26"/><path class="a4b6a322-477d-48bd-85f2-a7f6db38d96c" d="M26.28,24.29c.95,1.19-.47,2.05-.89,3a1.72,1.72,0,0,0-.06,1.24c.48.56,1.37.32,2,.5a20.89,20.89,0,0,0,7.4.62c1.07-.18,1.85-1.3,2.92-1.49.37,1.24-.77,2.11-1.31,3.05-.47,1.23-1.13,2.91-2.74,3-2.93.24-5.44-1.12-7.94-2.18a.73.73,0,0,0-.84.69C24.6,34.86,25,37,24.49,39a1.43,1.43,0,0,1-1.49.61c-1.73-.36-1.32-2.4-1.2-3.77-.11-1.38.36-2.86-.17-4.23-2.45-.57-4.66.8-6.87,1.49L11.6,34.73c-.42,0-.78-.43-.9-.86a5.7,5.7,0,0,1,1.61-4.67c.6-.23.84.63,1.38.7a38,38,0,0,0,7.94-1.51,2.71,2.71,0,0,0,0-2.23,1.84,1.84,0,0,1-.06-2c.65-1.17,2.26-.94,3.34-.68a3.13,3.13,0,0,1,1.37.8"/><path class="a4b6a322-477d-48bd-85f2-a7f6db38d96c" d="M58.19,24.75a4.22,4.22,0,0,1,.29,1.74c.3.25.78.06,1.2,0,.36-.49-.59-.81-.83-1.24-.12-.25-.31-.57-.12-.82.71-1.05,2.09-.23,3-.12a10.12,10.12,0,0,0,3.34,0l.06.23c-.66,1.07-1.37,2.87-2.92,2.68-1.32-.38-1.91,1.3-3,1.55,1.38.56,3.11-.06,4.48.26.18.24-.06.43-.24.61-1.25.69-2.68.81-3.94,1.38a15.88,15.88,0,0,0-3.52.48L55,32.51c.42.45,1.08.25,1.62.51.83.07,1.19,1.3,2,1.42.11-1-1.62-2-.54-3,.84,0,1.43.7,2.27.88,1.07.82,2.21,2,3.52,1.68a30.17,30.17,0,0,1,3.19-.35c.13.31-.72,1.57-1.14,2.08-.79,1-1.6,2.22-3.15,1.9A8.64,8.64,0,0,1,60,35.74c-.42.2-.18.87-.48,1.26-.71,1.29-1.91,3.41-3.7,3.16a1.43,1.43,0,0,1-1.14-.82c-.11-.24-.23-.62,0-.86.72-.42,2,.18,2.15-1,.06-.69.6-1.31.24-2a2.2,2.2,0,0,0-2-.62c-.35.43-.18,1.13-.42,1.55a3.79,3.79,0,0,1-2,2.62c-.84.18-2.09.61-2.75-.25a1.28,1.28,0,0,1-.11-1.31c.09-.59.46-.43.75-.53.85-.38,1.89-.35,2.28-1.46.3-.31.78-.55.84-1a.69.69,0,0,0-.54-.61c-.89-.07-1.55.73-2.39,1.06a11,11,0,0,1-3.16.73c-.59.44-.3,1.38-.11,2A3.3,3.3,0,0,1,46,39.86a.68.68,0,0,1-.84-.58c-.48-1.35,1.19-2.28.77-3.85-.12-.55.18-1.41-.35-1.8-1.14.19-2,1.32-3.23.81-.3-.19-1.07-.42-1.19.18,0,1.18-.48,2.18-.54,3.31-.6.55-1.14,1.48-2,1.54s-1.19-.93-1.9-1.12-1.26-.06-1.56-.74.36-1.43.66-2.11c.78.12.6,1.38,1.49,1.38.65,0,1.38.06,1.62-.64a53.47,53.47,0,0,0,.76-9.63c-.24-.42-.53-1.12-.17-1.61.77-1,2-2.05,3.28-1.68l2.33.94c.65-.06,1.31-.75,1.91-.19a3.31,3.31,0,0,1,.29,2.79c.3.93-.11,1.86-.05,2.85.29,1.33-.3,2.74.11,4,.24.26.72.06,1,0a15.21,15.21,0,0,1,2.87-1.18l.29-.31c-.65-.5-1.78-.18-2.51-.57a1.28,1.28,0,0,1-.89-.87c.06-1.78,2.09-.92,3-1.66-.47-.57-1.6-.12-1.78-1.12-.13-.38.23-.69.53-.75l4.65-.63c.84-1-.65-1.92-.11-3,.24-.37.65-.43,1-.55,1.3-.33,1.85.93,2.62,1.61m-9-.26a1.14,1.14,0,0,0,.43,2.18,6.33,6.33,0,0,0,3.82-1.3.62.62,0,0,0-.13-.56,10.12,10.12,0,0,0-4.12-.32m-6.44,1.19c-.13.23-.54.62-.48,1.06s.3.43.48.49c.9-.17,2.09,0,2.93-.49a1.19,1.19,0,0,0-.19-1,4.61,4.61,0,0,0-2.74-.06m-.12,4.79c-.24-.14-.71-.26-.9.12a.87.87,0,0,0,.07.93c1,.38,2.68-.31,3.64-.69-.78-.36-2.15.07-2.81-.36"/><path class="a4b6a322-477d-48bd-85f2-a7f6db38d96c" d="M118.12,27a.92.92,0,0,1,.23,1c-.29.62-1.15.56-1.15,1.31a12.06,12.06,0,0,1-.28,3.79,13.18,13.18,0,0,1-.93,5.4,2,2,0,0,1-1.67,1.18c-1.15,0-1.83-1.48-3-1a40.15,40.15,0,0,1-9.17.32c-1.27-.25-2.12.86-3.27.55a4,4,0,0,1-1.55-3L98,35c.06-2,.46-4-.34-5.83-.58-.51-1.55-.2-1.84-1.13a3.63,3.63,0,0,1,.12-2,1.54,1.54,0,0,1,1.55-.8c1-.38,1.49,1.3,2.52.94,3-1.7,6.77-.88,10.09-.94a5.77,5.77,0,0,0,2.47.12,2.38,2.38,0,0,1,2.64-.75A7.35,7.35,0,0,1,118.12,27m-12.46.93c-1.83.33-3.84.07-5.44.94,0,.38-.29.93.11,1.18,1.49,0,3,.49,4.59.43a33.5,33.5,0,0,0,7.45-.37l.51-.44c0-.42.23-1.05-.22-1.41a50.38,50.38,0,0,0-7-.33m6.6,4.18a29,29,0,0,1-4.42,1.06c-2,.36-4,1.11-6.19,1-.4-.2-.81-.82-1.26-.45-.23.51-.58,1.38-.11,2,1.54.38,3.21,0,4.81.32,2.52-.26,5.1-.2,7.34-1.31.52-.43.23-1.37.34-2,0-.31-.11-.68-.51-.61"/><path class="a4b6a322-477d-48bd-85f2-a7f6db38d96c" d="M82.46,25c2.45.61,5.14-.07,7.58.43a.71.71,0,0,1-.05.88c-.49.49-.9,1.1-1.56,1.29-.35.13-.24.58,0,.75a1.86,1.86,0,0,1,1.07,1.55c.07,1.32-1.31,1.06-1.78,1.93.41.56,1.55.38,2.27.44,2,.06,3.22-2.18,4.88-2.8.37.06.31.49.31.75-.42,2-1.08,4-2.81,5.21-1.85.63-3.4-.56-5.25-.56-1.2.44-.9,2-1.2,3,.6.67,2.16.8,1.62,2.18-.42.8-1.37.42-2.09.42a9.31,9.31,0,0,0-3.16,0c-.85.25-1.14-.56-1.74-.8-2.44-.37-4.71-1-7.16-1.25a1.32,1.32,0,0,1-.73-.86c-.23-.94.79-1.36,1.27-1.87,0,0,.71-.61.71-1.18.06-.24-.23-.36-.41-.42a12,12,0,0,0-6,2.16c-.41.12-.77-.31-.89-.62-.42-1.48,1.19-2.35,1.43-3.73l.24-.2c1.91.7,4.07.2,6,.14.06-.07.25-.07.25-.19-.28-.41-.46-1.18-.94-1.55s-.25-.41,0-.8a1.5,1.5,0,0,1,2.51.18,4.15,4.15,0,0,1,1.08,2.36,3.56,3.56,0,0,0,2,0c.06-.19.3-.37.12-.55a16.4,16.4,0,0,0-1.47-1c-.72-.12-.74-.41-.68-1.08a1.56,1.56,0,0,1,.77-1.07l1.77.16,5.21.16.48-.63-.12-.12c-2.56-.07-5.09-.65-7.65-.33-2.19.11-3.18.92-5.18,1.26a2.56,2.56,0,0,1-1.79-.06,2.84,2.84,0,0,1-1.14-1.87,1.89,1.89,0,0,1,.9-1.62c.59-.18,1.13.26,1.67.2a37,37,0,0,0,4.61-.14c0-.69-.31-1.24.17-1.73A2.5,2.5,0,0,1,79.77,23,5.31,5.31,0,0,1,82.46,25m.31,4.61c-.72.25.54.64-.07,1.9.6.63,1.55.38,2.33.32.54-.44.25-1.19.31-1.87-.23-.73-2.1-.46-2.57-.35m-5.32,3.94c-.36.87-1.13,1.7-1.13,2.64a2.73,2.73,0,0,0,2,.17,6.12,6.12,0,0,0,1.46-2.75,5.69,5.69,0,0,0-2.3-.06m6.68.71c-.65-.18-1.8-.76-2-.18a11.88,11.88,0,0,1-1.86,2.39c0,.14.05.14,0,.27,1,.31,1.51.87,2.34.81a6,6,0,0,0,1.65-3.11Z"/><path class="a4b6a322-477d-48bd-85f2-a7f6db38d96c" d="M147,29c-.23,1.49-.17,3.24-1.79,3.85-1.13.39-2.32-.25-3.39,0l-.19.45c.24,2.1,1.14,4.73-.36,6.45a1.36,1.36,0,0,1-1.6.18c-1.61-1-.9-3.1-1-4.83,0-.76.24-1.63-.24-2.31-1-.12-2.51-.37-3.34.45-.24,1.86-1,3.47-1.13,5.32a1.55,1.55,0,0,1-1.08,1.13,1.29,1.29,0,0,1-1.08-.55l0-.93a29.58,29.58,0,0,0,.83-3.87l-.06-.11c-1.07.49-2.44.17-3.58.42l-.22,0a4.22,4.22,0,0,1,1.94,2.19c.06.63-.28,1.87-.71,2a.94.94,0,0,1-1.07-.56c-.21-.54-.94-1.66-1.26-2.55a9.23,9.23,0,0,1-.17,2.93c-.12.62-.33,1.55-1.24,1.4a2.48,2.48,0,0,1-1.09-.84c-.48-1.11.23-2.29-.11-3.36-.19-.19-1,0-1.15.15-.65.43.39,1,.33,1.58.12.69.22.57-.26,1.51a2.19,2.19,0,0,1-1.67.87,1.23,1.23,0,0,1-1.2-1c-.12-.56,1.41-2.1.93-2.4-.53.06-2.24.91-2.48.28a3.23,3.23,0,0,1-.2-2.68c.42-.43.72.4,1.75,0l3.7-1a.58.58,0,0,0,.25-.76,9.38,9.38,0,0,0-2.24-.14,1.48,1.48,0,0,1-1.38-.81c-.23-.23-.71-1.53-.38-1.65s1.49.17,2,.11l-.06-.79c-.48-.63-1.92.12-2.28-.7-.17-.87.8-1.13.85-2.1.82-.32,1.67.17,2.44-.32-.12-.44-.42-1-.06-1.43.53-.43,1.08-1,1.79-.75a14.08,14.08,0,0,0,3.58,2,16.41,16.41,0,0,0,3-.61c.18,0,.48.18.42.42.39,1.48-1.24,1.77-2.1,2.47-.15.14.13.42,0,.58.54.19,1.49-.19,1.73.57a2.18,2.18,0,0,1-.65,1.54c-1,.8-2.39.8-3.65,1.12-.11.07-.3.32-.11.5l.3.18c1.55-.06,3.7-.73,4.46.59A20.29,20.29,0,0,0,133.73,28c-.17-.68-.53-1.62,0-2.3a1.59,1.59,0,0,1,1.56-.37c.89.24,1,1.61,1.91,1.74a3.58,3.58,0,0,0,3-1.32c.24-.68-.36-1.35.12-2,1.07-1.12,2.45,0,3.4.74.24.7.6,1.37.24,2.12a6.23,6.23,0,0,1-6.2,2.62c-.68-.12-1.38-.76-2-.2-.48.31-.3.93-.48,1.43.66.76,1.43-.24,2.14-.3a14.56,14.56,0,0,1,4.31-.2c1,.07,2,.87,3,.37l1.78-1.73c.25-.06.37.18.42.37m-21.35-.44a2.16,2.16,0,0,1,.33.8c0,.28.71.11.93.06s.28-1,.28-1Z"/><path class="a4b6a322-477d-48bd-85f2-a7f6db38d96c" d="M173.61,31.45c.31-2-1.25-4.67-.06-6.6.25-.37,0-.86-.23-1.18-1.14-1-2.57-.25-3.7.06a13.83,13.83,0,0,0-5.73,0c-.89.13-1.79-.67-2.51.13-.29.61.3.93.6,1.37.65,1.54-.24,3.67,1.25,4.79a12.93,12.93,0,0,1,3.23,0l3.64.06.48.37c.47,2.23.23,4.84.3,7,.48.8.83,2,2,2a2.14,2.14,0,0,0,1.31-1.06c.54-2.34-.65-4.59-.54-7m-5.11-5.7c-.75.79-3.64.72-4,.21.68-.6,3.08-.46,4-.21m.16,2.6a13.52,13.52,0,0,1-4.17.25c-.12-.06-.23-.4-.1-.46.52-.07,1.42.06,2,0,.89-.33,1.45-.87,2.41-.87l.32.52c.06.32-.24.5-.48.56"/><path class="a4b6a322-477d-48bd-85f2-a7f6db38d96c" d="M164.85,30.59l-4.24.06a1.79,1.79,0,0,1-1.14-.18c1.08-.76.84-2.12,1.31-3.17,0-.94.36-2.37-.59-3a3.15,3.15,0,0,0-3,.11c-1.2.5-2.15-.36-3.17-.68-2.6-.19-3.88,0-5.13,1.68-.89,1.3.84,1.55,1.13,2.48-.41,2.68-1.07,5.29-1.43,7.95-.12.38-.53.63-.59,1.08a4.08,4.08,0,0,0,2,2.9,1.06,1.06,0,0,0,1.31-.37c.9-1.48.49-3.67.9-5.33a9.92,9.92,0,0,1,.42-3.75c.77-.29,1.13,0,1.85.14A12.39,12.39,0,0,0,156.61,33c.35,1.06.24,2.36.53,3.47-.18.62-.83.57-1.25.87-.11.25-.42.51-.24.81.84,1.17,2.51.63,3.7,1.06,1.37.43,2.21-.69,3.53-.63.71,0,.06.81.48,1.12a1.8,1.8,0,0,0,1.49.32c2.14-.81,1.66-3.55,1.9-5.66-.3-1.36-.06-3.55-1.9-3.79M154,25.88c1,.1,2.26-.22,3.1.41-.71.5-1.55-.1-2.33.3-.48,0-1,.3-1.37-.1-.06-.51.35-.39.6-.61m-.92,2.53c-.17-.06-.05-.24.06-.24a13.2,13.2,0,0,1,3.53-.75c.29,0,.66-.12.83.19-.29.24.31.17.06.44-1.31.74-3,.49-4.48.36m3.7,2.24a.31.31,0,0,1-.17-.49c.17-.06.17-.14.47-.14s1.25.24,1.48.56a3,3,0,0,1-1.78.07m6.81,5.78a3.73,3.73,0,0,1-.8.2,35.3,35.3,0,0,1-4.33.31.3.3,0,0,1-.18-.39l.3-.25c1.37-.06,2.87,0,4.3-.19.23.13.83-.24.71.32m-4.4-1.89a28.14,28.14,0,0,1,3.35-.35c.34.17.73-.08,1,.14-.62.61-3.09.6-4.09.62ZM159,33.07l-.33-.38a37.73,37.73,0,0,1,3.9-.26c.4.16.91-.06,1.22.16a25.82,25.82,0,0,1-4.79.48"/><path class="bdf1554a-9184-4b96-aa02-676c222c7718" d="M196.76,30.35V28.66h-3.64v2.42h-1.53V28.66h-3.66v1.77h-1.49V27.65h5.15V27H187.3V25.84h10.14V27h-4.32v.63h5.18v2.7Zm-.09,7.48h-3.83a1.16,1.16,0,0,1-1.28-1.31v-.65H189.4v.72h-1.6v-5H197v4.32h-3.85v.28c0,.29.08.43.42.43h3.08c.47,0,.72-.17.81-1.3l1.24.58c-.4,1.77-.73,2-2,2m-8.13-8.7H191v.73h-2.47Zm0,1.19H191V31h-2.45Zm3,2.23H189.4v.66h2.16Zm0,1.6H189.4v.71h2.16Zm3.85-1.6h-2.29v.66h2.29Zm0,1.6h-2.29v.71h2.29Zm-1.69-5h2.51v.69h-2.51Zm0,1.17h2.5V31h-2.5Z"/><path class="bdf1554a-9184-4b96-aa02-676c222c7718" d="M206.75,32.4v3.38c0,2-.63,2.06-3.35,2.06l-.8-1.72a14.21,14.21,0,0,0,1.6.19c.42,0,.81-.13.81-.8V32.4h-5.25V30.83H205v-2.1l.93.24c.71-.58,1.22-1,1.45-1.27h-6.33V26.15h8.67l.86.88c-1.58,1.43-2.84,2.5-3.84,3.35v.45H212V32.4Z"/><path class="bdf1554a-9184-4b96-aa02-676c222c7718" d="M224.26,37.83A9,9,0,0,1,222.53,36a10.74,10.74,0,0,1-2,1.74l-1.2-1a5.24,5.24,0,0,1-.58,1l-1.19-.61v.51H216V33.07h-.71a13.74,13.74,0,0,1-1,4.49l-1.56-.25c.72-1.45,1.26-3.13,1.26-7.45,0-2-.14-3.46-.21-4.25l1.42,0c.31,0,.5.05.5.23s-.07.15-.16.22-.17.13-.17.3c0,.36,0,2.1,0,2.49h.71V25.64l1.37.1c.42,0,.51.07.51.21a.18.18,0,0,1-.09.17c-.19.16-.23.18-.23.28v2.49h.69v1.54h-2.94v1.1h2.19V36.8a8.73,8.73,0,0,0,1.12-3.43,29.24,29.24,0,0,0,.28-4.15c0-.83,0-1.73-.1-3.17h6.57v1.48h-5c0,.92,0,1,0,1.65h4.09l.47.55a14.61,14.61,0,0,1-1.52,4.89,7.53,7.53,0,0,0,2,2Zm-3.78-7a15.08,15.08,0,0,1-1,5.7,6.47,6.47,0,0,0,2.19-1.84,14.46,14.46,0,0,1-1.21-3.86m1.56-.14a8.73,8.73,0,0,0,.59,2.33,8.21,8.21,0,0,0,.62-2.33Z"/></svg>