<svg xmlns="http://www.w3.org/2000/svg" width="194.136" height="18.694" viewBox="0 0 194.136 18.694"><title>foot_logo</title><g id="886efee6-1ee8-4064-971f-cfe46bd760f6" data-name="レイヤー 2"><g id="c2efd720-6fef-44ce-ad2a-ae436e42f886" data-name="レイヤー 1"><path d="M17.6,12.4l-.715,3.429a3.419,3.419,0,0,1-3.223,2.618H11.437l.53-2.537h1.245a.5.5,0,0,0,.5-.4l.241-1.158H10.78l-.909,4.342H6.657l.906-4.342h-3.2l-.855,4.1H.275L1.538,12.4H0L.92,8.016H20.046L19.132,12.4Zm2.375-8.892L19.22,7.1H2.127l.75-3.588H1.86L2.39.976H3.4L3.61,0H6.844l-.2.976h3.715l.2-.976h3.214l-.2.976h3.694L17.469,0h3.237L20.5.976h1.018l-.529,2.537ZM8.339,10.635H3.566l-.258,1.239H8.081ZM9.826,3.513H6.113L5.849,4.772H9.562Zm6.48,7.122H11.553L11.3,11.874h4.75Zm.428-7.122H13.039l-.263,1.259h3.7Z" style="fill:#7d7d7d"/><path d="M26.317,4.224l-1.275,6.088c-.78,3.734-2.741,6.879-5.607,8.382l1.135-5.44a4.847,4.847,0,0,0,1.213-2.819l1.981-9.5h7.78l.2-.935h3.443l-.195.935H42.27l-.685,3.289Zm8.637,14.47-.092-1.257c-2.614,1-5.71,1.014-11.932,1.014l.687-3.288h1.369l4.491-9.6h3.734l-4.57,9.583a18.914,18.914,0,0,0,6.056-.792L34.4,9.01h3.544l.614,9.684Z" style="fill:#7d7d7d"/><path d="M45.357,17.945H40.085l.713-3.411h5.209c6.99,0,9.618-4.039,10.8-9.681l.343-1.642h3.483l-.44,2.108C58.819,11.9,55.378,17.945,45.357,17.945ZM41.975,9.6l.639-3.065h8.775L50.749,9.6ZM43.1,4.224l.643-3.087h8.778l-.646,3.087Z" style="fill:#7d7d7d"/><path d="M74.922,9.583l-.124.587c-.953,4.57-4.971,7.815-11.591,7.815h-2.8l.7-3.369h2.8c4,0,6.5-1.5,7.109-4.446l.125-.587H61.56l.679-3.251H80.144l-.678,3.251ZM62.673,4.264l.676-3.249h17.9l-.675,3.249Z" style="fill:#7d7d7d"/><path d="M90.914,9.294l-1.8,8.632H86.127l1.613-7.736-7.572,1.786.614-2.942,7.575-1.808c3.145-.747,4.954-1.766,5.593-3.734h3.2C96.148,6.5,94.067,8.2,90.914,9.294Z" style="fill:#7d7d7d"/><path d="M96.513,11.591l.759-3.638H114.3l-.755,3.638Z" style="fill:#7d7d7d"/><path d="M132.645,6.212l-.411,1.972c-1.239,5.925-5.347,9.72-14.185,9.72h-2.194l.7-3.37h2.2c6.62,0,9.121-2.473,9.95-6.435l.4-1.887h-7.137a16,16,0,0,1-5.969,4.263l.82-3.94A10.976,10.976,0,0,0,121.7.427h3.589A17.115,17.115,0,0,1,124.276,2.8h11.467l-.712,3.41Z" style="fill:#7d7d7d"/><path d="M136.124,11.591l.761-3.638h17.033l-.76,3.638Z" style="fill:#7d7d7d"/><path d="M158.213,17.986h-3.506l.7-3.369H159c5.416,0,9.686-1.46,10.965-7.591l.521-2.5H156.791l.707-3.387h12.737l-.629,3.027h4.439l-.6,2.882C171.83,14.773,166.41,17.986,158.213,17.986ZM170.584,3.352,171.27.061h1.784l-.686,3.291Zm2.676,0,.689-3.291h1.782l-.688,3.291Z" style="fill:#7d7d7d"/><path d="M176.889,17.966h-3.674a25.924,25.924,0,0,0,2.761-8.037l1.911-9.18h3.546l-1.9,9.078C178.666,14.007,177.627,16.91,176.889,17.966Zm6.99,0h-4.09l3.6-17.233h3.569L184.083,14.5H185.1c2.011,0,3.679-1.731,4.575-6.013l.978-4.689h3.482l-1.071,5.137C191.795,15.022,188.8,17.966,183.879,17.966Z" style="fill:#7d7d7d"/></g></g></svg>