<svg id="a74a3bad-198f-4af9-8c51-4a5ff11045e8" data-name="base" xmlns="http://www.w3.org/2000/svg" width="240" height="80" viewBox="0 0 240 80"><defs><style>.a1c99ce0-4ce7-42d0-acc4-43053a271b7d{fill:#3ba52f;}.a19cc28f-abd5-40d7-83ab-a9aa46c7b34d{fill:#383838;}</style></defs><title>foot_banner_regulation</title><path class="a1c99ce0-4ce7-42d0-acc4-43053a271b7d" d="M32,27.48a5.78,5.78,0,0,1-1.59-4.77,6.15,6.15,0,0,1,2.47-4.16c.42-.33.49-.68.25-1.05a.82.82,0,0,0-1.19-.32,11.65,11.65,0,0,0-1.2.84,7,7,0,0,0-2.81,5.51c0,.16,0,.46.09.75a7.54,7.54,0,0,0,4,5.45.83.83,0,0,0,1.09-.41.69.69,0,0,0-.22-1A12.51,12.51,0,0,1,32,27.48Zm16-10.36a.83.83,0,0,0-1.1.4.69.69,0,0,0,.21,1,10.61,10.61,0,0,1,.86.78,5.8,5.8,0,0,1,1.66,4.82,6.19,6.19,0,0,1-2.47,4.18c-.43.35-.5.7-.24,1.08a.82.82,0,0,0,1.21.28,8.86,8.86,0,0,0,2.52-2.17,6.91,6.91,0,0,0,1.46-4.31C51.92,20.51,50.35,18.54,47.94,17.12Zm0,0a.83.83,0,0,0-1.1.4.69.69,0,0,0,.21,1,10.61,10.61,0,0,1,.86.78,5.8,5.8,0,0,1,1.66,4.82,6.19,6.19,0,0,1-2.47,4.18c-.43.35-.5.7-.24,1.08a.82.82,0,0,0,1.21.28,8.86,8.86,0,0,0,2.52-2.17,6.91,6.91,0,0,0,1.46-4.31C51.92,20.51,50.35,18.54,47.94,17.12Zm9.16,4.09a11.65,11.65,0,0,0-5.84-7.06c-.4-.23-.84,0-1.16.51-.21.35-.11.63.27.94.58.5,1.21,1,1.76,1.54a8.74,8.74,0,0,1,.52,12,30.94,30.94,0,0,1-2.27,2.16,1.11,1.11,0,0,0-.37.68.92.92,0,0,0,1.38.68,24.39,24.39,0,0,0,2.55-1.89,10.12,10.12,0,0,0,3.47-7.64A17.13,17.13,0,0,0,57.1,21.21Zm-5.05,2c-.13-2.66-1.7-4.63-4.11-6.05a.83.83,0,0,0-1.1.4.69.69,0,0,0,.21,1,10.61,10.61,0,0,1,.86.78,5.8,5.8,0,0,1,1.66,4.82,6.19,6.19,0,0,1-2.47,4.18c-.43.35-.5.7-.24,1.08a.82.82,0,0,0,1.21.28,8.86,8.86,0,0,0,2.52-2.17A6.91,6.91,0,0,0,52.05,23.17Zm-4.11-6.05a.83.83,0,0,0-1.1.4.69.69,0,0,0,.21,1,10.61,10.61,0,0,1,.86.78,5.8,5.8,0,0,1,1.66,4.82,6.19,6.19,0,0,1-2.47,4.18c-.43.35-.5.7-.24,1.08a.82.82,0,0,0,1.21.28,8.86,8.86,0,0,0,2.52-2.17,6.91,6.91,0,0,0,1.46-4.31C51.92,20.51,50.35,18.54,47.94,17.12ZM29.6,31.24a22.4,22.4,0,0,1-1.73-1.5,8.74,8.74,0,0,1-.55-12,27.1,27.1,0,0,1,2.27-2.15,1.14,1.14,0,0,0,.37-.66.94.94,0,0,0-1.39-.72,13.86,13.86,0,0,0-3.15,2.48,9.74,9.74,0,0,0-2.85,6.43A9.62,9.62,0,0,0,23.33,27a12.35,12.35,0,0,0,5.34,5.66c.42.25.82.09,1.17-.45C30.08,31.87,30,31.57,29.6,31.24ZM50.49,48.7q-3.87-10.1-7.76-20.17c-.13-.34-.1-.49.21-.7a5.32,5.32,0,1,0-7.89-2.36,5.67,5.67,0,0,0,2.33,2.61c-.06.18-.1.33-.15.47q-3.9,10.06-7.75,20.15a2.76,2.76,0,0,0-.2.8,2,2,0,0,0,3.85.74c.29-.76.55-1.51.8-2.28a.49.49,0,0,1,.56-.42h11c.3,0,.44.09.52.36.25.78.52,1.55.8,2.32a2,2,0,1,0,3.67-1.52ZM39.93,29.56H40A58.86,58.86,0,0,0,42,35.89c-1.23-.37-2.37-.87-3.59-1.24A26.42,26.42,0,0,0,39.93,29.56ZM35.7,42.88c.6-1.73,1.2-3.47,1.82-5.23,1.5.44,3,.89,4.54,1.37-2.16,1.34-4.22,2.63-6.26,3.92ZM37.8,45s0-.08,0-.11c1.93-1.2,3.88-2.4,5.89-3.66.44,1.29.86,2.37,1.3,3.77Z"/><path class="a1c99ce0-4ce7-42d0-acc4-43053a271b7d" d="M71.38,25.58a15.07,15.07,0,0,0-.13-2.21H74a14.15,14.15,0,0,0-.14,2.21v6h5.68a10.8,10.8,0,0,0,1.79-.11,14.78,14.78,0,0,0-.09,1.88v8.26a19.57,19.57,0,0,0,.13,2.55H78.8V43.05H65.91a12.11,12.11,0,0,0-2.44.13V40.63a15.84,15.84,0,0,0,2.33.11h13V38.35H66.49a18.93,18.93,0,0,0-2.14.09v-2.5a16.1,16.1,0,0,0,2.16.09H78.84V33.89H66a21.32,21.32,0,0,0-2.3.09V31.43a14.46,14.46,0,0,0,2.33.13h5.4Zm-5.52-1.14a27.16,27.16,0,0,1,3.49,5.47l-2.19,1.3a25.49,25.49,0,0,0-3.44-5.57Zm15.64,1A27,27,0,0,1,78,31.23l-2.08-1.3a18.48,18.48,0,0,0,3.19-5.56Z"/><path class="a1c99ce0-4ce7-42d0-acc4-43053a271b7d" d="M90.46,41.75A17.43,17.43,0,0,0,90.57,44h-2.7A13.47,13.47,0,0,0,88,41.71V36.1A15.83,15.83,0,0,1,85.53,38a8.71,8.71,0,0,0-1.14-2.33,15.5,15.5,0,0,0,3.84-3,13.17,13.17,0,0,0,2.43-3.44H87a14.61,14.61,0,0,0-1.87.09V26.83a14.79,14.79,0,0,0,1.76.09H88V25a10.26,10.26,0,0,0-.14-1.7H90.6a9.48,9.48,0,0,0-.14,1.74v1.84h.92a8.56,8.56,0,0,0,1.29-.07L93.75,28a6,6,0,0,0-.49.94A18.45,18.45,0,0,1,91,32.77a13.34,13.34,0,0,0,3.55,2.84,9.74,9.74,0,0,0-1.23,2.19,12.24,12.24,0,0,1-2.88-2.53Zm9.47-1h2.69a19.1,19.1,0,0,0,2.54-.13v2.7a18.51,18.51,0,0,0-2.54-.16H95a18.26,18.26,0,0,0-2.53.16v-2.7A20.33,20.33,0,0,0,95,40.7h2.44V32H95.78c-.76,0-1.47,0-2.19.11V29.55a15.06,15.06,0,0,0,2.19.11h1.68V25.73a16,16,0,0,0-.16-2.32h2.79a13.42,13.42,0,0,0-.16,2.32v3.93h2.37a14.41,14.41,0,0,0,2.19-.11v2.53A21.83,21.83,0,0,0,102.3,32H99.93Z"/><path class="a1c99ce0-4ce7-42d0-acc4-43053a271b7d" d="M116.69,37c-1.27,2.88-2.7,4.2-4.53,4.2-2.55,0-4.38-2.59-4.38-6.19a9.57,9.57,0,0,1,2.46-6.5,10,10,0,0,1,7.68-3.13c5.36,0,8.85,3.26,8.85,8.29A8.59,8.59,0,0,1,121.34,42a14.46,14.46,0,0,1-3.51.94,7.23,7.23,0,0,0-1.36-2.61,12,12,0,0,0,4.44-1.23A6.24,6.24,0,0,0,124,33.48a5.52,5.52,0,0,0-2.75-4.95,4.78,4.78,0,0,0-2.25-.68A32.37,32.37,0,0,1,116.69,37Zm-3.28-8a7.47,7.47,0,0,0-3,6c0,1.84.78,3.29,1.76,3.29.74,0,1.5-.94,2.31-2.86a29.93,29.93,0,0,0,1.85-7.55A5.61,5.61,0,0,0,113.41,29Z"/><path class="a1c99ce0-4ce7-42d0-acc4-43053a271b7d" d="M149.85,29.08a11.42,11.42,0,0,0-1.59-.11c-.29,3.91-1,6.26-2.46,8.76a15,15,0,0,0,4.56,3.51A9.09,9.09,0,0,0,149,43.78a18.12,18.12,0,0,1-4.74-4,17.83,17.83,0,0,1-5.14,4,8.52,8.52,0,0,0-1.27-2.12c-.45,1.52-1,1.88-2.9,1.88-.34,0-.83,0-1.5-.09a8,8,0,0,0-.42-2.37,6.61,6.61,0,0,0,1.51.2c.88,0,1.05-.11,1.21-.69a34.71,34.71,0,0,0,.43-7.24H134c-.45,5.5-1.21,8.11-3.1,10.52a6.9,6.9,0,0,0-1.75-2.17c1.37-1.76,2-3.41,2.39-6.52a47,47,0,0,0,.38-6.34h-.35a15.57,15.57,0,0,0-2.08.09V26.63a15.68,15.68,0,0,0,2.3.13h1.52V25.4a9.67,9.67,0,0,0-.14-2h2.68a10.11,10.11,0,0,0-.13,2v1.38H137a14.1,14.1,0,0,0,2.13-.11V29c-.72,0-1.37-.06-2.08-.06H134.3c-.05,1.09-.09,1.87-.11,2.34h2.48a13,13,0,0,0,1.81-.06v.15A16.12,16.12,0,0,0,140.87,26a12.39,12.39,0,0,0,.51-2.77l2.55.43a5.82,5.82,0,0,0-.25.89c-.11.43-.42,1.65-.6,2.24h4.35a22,22,0,0,0,2.42-.12Zm-7.13,8.67a20.59,20.59,0,0,1-2.23-5.11c-.29.42-.43.64-.9,1.25a6.89,6.89,0,0,0-1.16-1.54c0,2.12,0,3.53-.06,4.19a27.94,27.94,0,0,1-.45,4.9A13.6,13.6,0,0,0,142.72,37.75ZM142.34,29c-.22.58-.27.65-.42,1a16.58,16.58,0,0,0,2.3,5.63A15.09,15.09,0,0,0,145.89,29Z"/><path class="a1c99ce0-4ce7-42d0-acc4-43053a271b7d" d="M151.86,31.83a10,10,0,0,0,1.79.11h1.67a13.13,13.13,0,0,0,1.7-.09,24,24,0,0,0-.09,2.42v4.67a3.45,3.45,0,0,0,1.28,1.42c1,.68,2.21.85,5.56.85a62.71,62.71,0,0,0,9-.49,9.86,9.86,0,0,0-.67,2.64c-.88,0-.88,0-2.48.09-.67,0-4,.06-5.1.06a25.18,25.18,0,0,1-5.58-.4A5.34,5.34,0,0,1,155.77,41a20.65,20.65,0,0,1-2.59,2.14c-.16.11-.54.4-.74.58l-1.07-2.54a12.64,12.64,0,0,0,3.22-2.21V34.13h-1.23a8.28,8.28,0,0,0-1.5.11Zm1.94-8.13a29.62,29.62,0,0,1,3.87,4l-1.85,1.81a24.87,24.87,0,0,0-3.8-4.18Zm6.8,5.5a18,18,0,0,0-2,.11V26.94a18.34,18.34,0,0,0,2,.11h.87a11.1,11.1,0,0,0-1.59-2.88l2.15-1a15.42,15.42,0,0,1,1.65,2.93l-1.94,1h3.59a17.69,17.69,0,0,0,1.81-3.86l2.42.8c-.27.47-.27.47-.79,1.47-.31.59-.55,1-.89,1.59h1.3a12.81,12.81,0,0,0,2-.11v2.37c-.74-.07-1.41-.11-2.14-.11h-3.2a19.84,19.84,0,0,1-.11,2.54H170a13.27,13.27,0,0,0,2-.11V34c-.74-.06-1.43-.11-2.22-.11h-3.61A7.32,7.32,0,0,0,168,36.14a10.7,10.7,0,0,0,4.11,2A6.91,6.91,0,0,0,171,40.5a11.15,11.15,0,0,1-4.23-2.32,9.43,9.43,0,0,1-2.1-2.51,7.49,7.49,0,0,1-2.05,2.71,11.7,11.7,0,0,1-3.24,2,6,6,0,0,0-1.56-2.12,10,10,0,0,0,3.26-1.77,6.17,6.17,0,0,0,1.76-2.61h-3c-.73,0-1.47,0-2.07.11V31.63a18.49,18.49,0,0,0,2.07.11h3.51a20.27,20.27,0,0,0,.11-2.54Z"/><path class="a1c99ce0-4ce7-42d0-acc4-43053a271b7d" d="M178.43,25.17a7.52,7.52,0,0,0-.12-1.65h2.57a11.67,11.67,0,0,0-.11,1.65h7a8.64,8.64,0,0,0-.12-1.65h2.57a11.45,11.45,0,0,0-.11,1.65h1.48A17.7,17.7,0,0,0,194,25V27.3a20.58,20.58,0,0,0-2.43-.11h-1.48v6.27h1.79a20.78,20.78,0,0,0,2.48-.13v2.25a19.94,19.94,0,0,0-2.41-.13h-2.28A12.42,12.42,0,0,0,195,37.91a11.08,11.08,0,0,0-1.09,2.34,18.06,18.06,0,0,1-4-2v1.5a16.06,16.06,0,0,0-2-.09h-2.59v1.56h5.45a19,19,0,0,0,2.48-.13v2.41a21.36,21.36,0,0,0-2.66-.13H178.14a22.27,22.27,0,0,0-2.68.13V41.1a22.79,22.79,0,0,0,2.54.11h5V39.65h-2.23a16.16,16.16,0,0,0-2,.09V38.22a16.07,16.07,0,0,1-4,2.08,8.07,8.07,0,0,0-1.1-2.33,11,11,0,0,0,5.19-2.52h-2.19a20.88,20.88,0,0,0-2.42.13V33.33a17.94,17.94,0,0,0,2.42.13h1.81V27.19H177.2c-.94,0-1.68,0-2.46.11V25a18.59,18.59,0,0,0,2.46.13Zm3.26,10.28a11.8,11.8,0,0,1-2.12,2.12c.4,0,.64,0,1.18,0H183a7.23,7.23,0,0,0-.11-1.56h2.55a7.57,7.57,0,0,0-.11,1.56h2.59c.53,0,.78,0,1.11,0a11.35,11.35,0,0,1-2.23-2.12Zm6.1-7.35v-.91h-7v.91Zm0,2.66v-.89h-7v.89Zm0,2.7v-.94h-7v.94Z"/><path class="a1c99ce0-4ce7-42d0-acc4-43053a271b7d" d="M214.51,34.69a18.18,18.18,0,0,0,2.12-.09v2.17a18.28,18.28,0,0,0-2.26-.09h-6.63v1.38h6.43A19,19,0,0,0,216.7,38v2.48A22.75,22.75,0,0,0,214,40.3h-6.21v1.25a21.36,21.36,0,0,0,.13,2.61H205a25.16,25.16,0,0,0,.13-2.59V40.3h-5.92a22.42,22.42,0,0,0-2.75.13v-2.5a17.06,17.06,0,0,0,2.42.13h6.25V36.68c-.74,0-1.27,0-1.83.07,0-.7.07-1.1.07-2.13V31.67c0-.67,0-1.38,0-1.87a7.72,7.72,0,0,1-1.34,1.47,7.81,7.81,0,0,0-.85-1.27l-1.32,1.79a17.58,17.58,0,0,0-3.68-2.35l1.58-1.81a21.59,21.59,0,0,1,2.86,1.63,13.5,13.5,0,0,0,4.58-6.12l2.48.65-.22.38c-.38.65-.38.65-1,1.54h2.83a9.22,9.22,0,0,0,1.26-2.48l2.3.6a3.34,3.34,0,0,0-.25.43,17.22,17.22,0,0,1-.94,1.45h2.3a17,17,0,0,0,2.26-.13v2.19a15.8,15.8,0,0,0-1.94-.09h-3v1.11h2.33c1.12,0,1.56,0,2-.06v2c-.56,0-1-.07-2-.07h-2.33v1.1h2.33a18.77,18.77,0,0,0,2-.07v2c-.61,0-1-.07-2-.07h-2.33v1.14Zm-11.84-1a25.62,25.62,0,0,1-4.87,3.91l-1.45-2.21a8.07,8.07,0,0,0,1.11-.58,18,18,0,0,0,4-3.15Zm-3.75-10.32a15.72,15.72,0,0,1,3.59,2.32l-1.47,2a11.81,11.81,0,0,0-3.69-2.48Zm10.25,5.47V27.68h-3.44v1.11Zm-3.44,2.93h3.44v-1.1h-3.44Zm0,3h3.44V33.55h-3.44Z"/><path class="a19cc28f-abd5-40d7-83ab-a9aa46c7b34d" d="M24.83,65.32a7.5,7.5,0,0,1-1-1.8A6.76,6.76,0,0,1,23.35,61a6.48,6.48,0,0,1,.46-2.44,7.73,7.73,0,0,1,1-1.8H26.1a7.1,7.1,0,0,0-1.16,1.82A6,6,0,0,0,24.46,61,6.18,6.18,0,0,0,25,63.5a7,7,0,0,0,1.16,1.82Z"/><path class="a19cc28f-abd5-40d7-83ab-a9aa46c7b34d" d="M29.11,64.33a7.72,7.72,0,0,0,0,.93h-1.1a6.15,6.15,0,0,0,.05-1V62a5.94,5.94,0,0,1-1,.77,3.83,3.83,0,0,0-.47-.95,6.11,6.11,0,0,0,1.57-1.23,5.36,5.36,0,0,0,1-1.41H27.7a5.78,5.78,0,0,0-.77,0v-1a5.1,5.1,0,0,0,.72,0h.46v-.77a5,5,0,0,0-.05-.69h1.1a4.63,4.63,0,0,0-.05.71v.75h.37a3,3,0,0,0,.53,0l.44.48a2.75,2.75,0,0,0-.2.38,7.53,7.53,0,0,1-.91,1.57,5.57,5.57,0,0,0,1.45,1.16,3.52,3.52,0,0,0-.5.89,4.78,4.78,0,0,1-1.18-1ZM33,63.9h1.1a7.08,7.08,0,0,0,1-.06V65a8.45,8.45,0,0,0-1-.06H31a8.4,8.4,0,0,0-1,.06V63.84a7.53,7.53,0,0,0,1,.06h1V60.33h-.69a8.57,8.57,0,0,0-.89,0v-1a5.72,5.72,0,0,0,.89,0H32v-1.6a7.23,7.23,0,0,0-.06-1h1.14a4.83,4.83,0,0,0-.07,1v1.6h1a5.72,5.72,0,0,0,.9,0v1a8.64,8.64,0,0,0-.9,0H33Z"/><path class="a19cc28f-abd5-40d7-83ab-a9aa46c7b34d" d="M35.77,65.32a7.27,7.27,0,0,0,1.16-1.82A6.14,6.14,0,0,0,37.41,61,5.94,5.94,0,0,0,37,58.57a7.8,7.8,0,0,0-1.17-1.82h1.28a7.29,7.29,0,0,1,1,1.8A6.46,6.46,0,0,1,38.53,61a6.93,6.93,0,0,1-.48,2.53,7.5,7.5,0,0,1-1,1.8Z"/><path class="a19cc28f-abd5-40d7-83ab-a9aa46c7b34d" d="M46,58.2c0-.36,0-.68,0-1a9.62,9.62,0,0,0,1,0h4.43a8.66,8.66,0,0,0,1,0c0,.35,0,.61,0,.93v5.9a11.1,11.1,0,0,0,.05,1.11h-1.1v-.55H47.07v.55H46A9,9,0,0,0,46,64.05Zm1,2.15h4.25V58.23H47.07Zm0,3.3h4.25V61.31H47.07Z"/><path class="a19cc28f-abd5-40d7-83ab-a9aa46c7b34d" d="M55.41,59.32a9.43,9.43,0,0,0-1.09.06V58.26a7.38,7.38,0,0,0,1.09.06h2.35v-.64a5.13,5.13,0,0,0-.06-.85h1.14a5.08,5.08,0,0,0-.06.84v.65h2.48a7,7,0,0,0,1.1-.06v1.12a9.73,9.73,0,0,0-1.1-.06h-2a9.09,9.09,0,0,0,1.37,1.92,8,8,0,0,0,2,1.54,3.85,3.85,0,0,0-.62,1,9.81,9.81,0,0,1-1.53-1.27v1a8.09,8.09,0,0,0-.92,0h-.81v.62a9.29,9.29,0,0,0,.06,1.13H57.69a7.6,7.6,0,0,0,.07-1.13v-.62H57a7.77,7.77,0,0,0-.91,0v-1a8.75,8.75,0,0,1-1.48,1.28,3.16,3.16,0,0,0-.62-1,8.61,8.61,0,0,0,3.18-3.51Zm2.35,1.75a8.09,8.09,0,0,1,.07-1,9.05,9.05,0,0,1-1.66,2.42,5.24,5.24,0,0,0,.81,0h.78Zm1.91,1.43a5.18,5.18,0,0,0,.8,0A9.72,9.72,0,0,1,58.7,60a8.26,8.26,0,0,1,.08,1V62.5Z"/><path class="a19cc28f-abd5-40d7-83ab-a9aa46c7b34d" d="M69.11,59.69c0,.09,0,.09,0,.23a5.43,5.43,0,0,1-1.18,3.39A6.29,6.29,0,0,1,65.54,65a2.78,2.78,0,0,0-.76-1,5,5,0,0,0,1.85-1,4.2,4.2,0,0,0,1.31-3.23H65.75a7.41,7.41,0,0,1-1.52,1.85,3,3,0,0,0-.93-.72,6.9,6.9,0,0,0,1.93-2.51A4.73,4.73,0,0,0,65.68,57l1.19.28-.35.79c-.07.16-.16.36-.27.59h4a8.46,8.46,0,0,0,1.16,0v1.12a4.53,4.53,0,0,0-.56,0H69.11Z"/><path class="a19cc28f-abd5-40d7-83ab-a9aa46c7b34d" d="M72.69,60.36a8.15,8.15,0,0,0,1.48.07H79a8.15,8.15,0,0,0,1.48-.07v1.27a11.34,11.34,0,0,0-1.49,0H74.18a11.44,11.44,0,0,0-1.49,0Z"/><path class="a19cc28f-abd5-40d7-83ab-a9aa46c7b34d" d="M89.06,58.82a1.77,1.77,0,0,0-.15.41,8.15,8.15,0,0,1-5.2,5.93,3.6,3.6,0,0,0-.81-1.09,6.61,6.61,0,0,0,4.77-4.91H83.32a7.44,7.44,0,0,0-1.15.05V58a5.75,5.75,0,0,0,1.17.07h4.2a5,5,0,0,0,.65,0,4.72,4.72,0,0,0-.56-.92l.66-.25a5.75,5.75,0,0,1,.82,1.44l-.37.15Zm.54-.65a6.2,6.2,0,0,0-.78-1.42l.65-.24a5,5,0,0,1,.81,1.38Z"/><path class="a19cc28f-abd5-40d7-83ab-a9aa46c7b34d" d="M93.68,57.42c0,.26,0,.26-.09,2a8.41,8.41,0,0,1-.74,3.75,5.81,5.81,0,0,1-1.26,1.69,3.32,3.32,0,0,0-.92-.88A4,4,0,0,0,91.61,63c.66-1,.87-2.23.87-4.79a4.1,4.1,0,0,0,0-.83Zm2.42-.11a5.86,5.86,0,0,0-.06.87L96,63.38a3.7,3.7,0,0,0,1.4-1,4.53,4.53,0,0,0,.9-1.68,3.7,3.7,0,0,0,.86.86,5.63,5.63,0,0,1-1.46,2.13,5.87,5.87,0,0,1-1.94,1.1c-.2.07-.28.11-.4.16l-.58-.62a4.34,4.34,0,0,0,.08-1l.05-5.15v-.28a3.62,3.62,0,0,0,0-.6Z"/><path class="a19cc28f-abd5-40d7-83ab-a9aa46c7b34d" d="M104.75,60.77a5,5,0,0,1-.64,2.46,4.35,4.35,0,0,1-2.39,1.8,3,3,0,0,0-.74-1,3.4,3.4,0,0,0,2.17-1.53,4,4,0,0,0,.4-1.73h-2.23a8.28,8.28,0,0,0-1.16,0V59.73a5.86,5.86,0,0,0,1.18.07h5.34a5.92,5.92,0,0,0,1.18-.07v1.09a8.28,8.28,0,0,0-1.16,0Zm-3.67-3.34a6.76,6.76,0,0,0,1.18.06h3.51a6.76,6.76,0,0,0,1.18-.06v1.11a10.26,10.26,0,0,0-1.16,0h-3.55a10.26,10.26,0,0,0-1.16,0Z"/><path class="a19cc28f-abd5-40d7-83ab-a9aa46c7b34d" d="M111.71,57.32a6.43,6.43,0,0,0-.06.92l-.05,5.22a6.6,6.6,0,0,0,2.5-1,5.37,5.37,0,0,0,1.86-2.1,4.13,4.13,0,0,0,.87.93,6.63,6.63,0,0,1-2,2.13,8.26,8.26,0,0,1-3.32,1.26,2.42,2.42,0,0,0-.55.15l-.59-.7a3,3,0,0,0,.09-.94l0-4.94a5,5,0,0,0,0-.94Z"/><path class="a19cc28f-abd5-40d7-83ab-a9aa46c7b34d" d="M120.45,60.12a10.57,10.57,0,0,0,4-1.62l.73,1-.82.39a15.36,15.36,0,0,1-3.9,1.27v1.2a.57.57,0,0,0,0,.12c0,.53,0,.74.16.87a2.85,2.85,0,0,0,1.57.24,17.61,17.61,0,0,0,2.12-.15,5.06,5.06,0,0,0,1-.22l0,1.22c-.19,0-.24,0-1.2.1-.54.05-1.69.11-2.25.11a3.61,3.61,0,0,1-2.14-.4,1.26,1.26,0,0,1-.45-.93,6.22,6.22,0,0,1,0-.84V58.27a5.84,5.84,0,0,0,0-.84h1.22a5.52,5.52,0,0,0,0,.85ZM124.79,57a6,6,0,0,1,.91,1.39l-.66.3a5.8,5.8,0,0,0-.9-1.4Zm1.37,1.16a6.89,6.89,0,0,0-.88-1.36l.63-.29a5.42,5.42,0,0,1,.9,1.32Z"/><path class="a19cc28f-abd5-40d7-83ab-a9aa46c7b34d" d="M127.26,60.3a4.9,4.9,0,0,0,.73,0h.69a5,5,0,0,0,.69,0,8.31,8.31,0,0,0,0,1v2a1.35,1.35,0,0,0,.42.48,3.7,3.7,0,0,0,2.13.39,29.57,29.57,0,0,0,3.91-.18,4.33,4.33,0,0,0-.28,1.07c-.76,0-2.09.06-3.18.06a5.47,5.47,0,0,1-2.67-.35,1.89,1.89,0,0,1-.8-.66,8.14,8.14,0,0,1-1.07.88l-.26.21-.45-1a5.69,5.69,0,0,0,1.3-.89v-2h-.51a3.14,3.14,0,0,0-.61,0Zm.75-3.4a11.34,11.34,0,0,1,1.59,1.64l-.77.74a9.64,9.64,0,0,0-1.55-1.7Zm2.36,1.42a3.38,3.38,0,0,0-.75,0v-.9a9,9,0,0,0,1,0H132a6.15,6.15,0,0,0-.05-.68h1a3.37,3.37,0,0,0-.05.68h1.5c.44,0,.78,0,1.05,0v.9a5.48,5.48,0,0,0-.93,0H133v.43h1.41a5.87,5.87,0,0,0,.76,0,4.72,4.72,0,0,0,0,.7V61.3a4.22,4.22,0,0,0,0,.67c-.26,0-.46,0-.76,0H133v.44h1.67c.46,0,.69,0,.91,0v.88a6.76,6.76,0,0,0-.91,0H133A4.47,4.47,0,0,0,133,64h-1a5.33,5.33,0,0,0,.06-.76h-1.45c-.33,0-.71,0-.91,0v-.87a8.56,8.56,0,0,0,.91,0H132v-.44h-1.3c-.27,0-.53,0-.76,0a4.47,4.47,0,0,0,0-.67V59.37a4.36,4.36,0,0,0,0-.65,5.63,5.63,0,0,0,.75,0H132v-.43Zm.55,1.17V60H132v-.51Zm0,1.18v.53H132v-.53Zm2-.67h1.21v-.51H133Zm0,1.2h1.21v-.53H133Z"/><path class="a19cc28f-abd5-40d7-83ab-a9aa46c7b34d" d="M139.94,62a4.07,4.07,0,0,0-.72-.53,3.41,3.41,0,0,0,.54-.41h-2v.42h-1a7.22,7.22,0,0,0,.05-1V58a6.35,6.35,0,0,0,0-.84,6.67,6.67,0,0,0,.83,0h1.47a6,6,0,0,0,.83,0c0,.27,0,.38,0,.82v2.1c0,.44,0,.59,0,.84.51-.63.68-1.39.68-3.07,0-.29,0-.55,0-.81a5,5,0,0,0,.79,0h2.08a5.56,5.56,0,0,0,.88,0c0,.24,0,.49,0,.91v3c0,.65-.26.87-1.06.87-.24,0-.38,0-.93,0a2.26,2.26,0,0,0-.21-.81,5.3,5.3,0,0,0,.93.09c.28,0,.34,0,.34-.22v-.3h-2.12A2.92,2.92,0,0,1,140.16,62H143a6.78,6.78,0,0,0,.83,0c0,.11,0,.11,0,.3s0,.29,0,.51v1.29h.25a4,4,0,0,0,.65,0v1a9.63,9.63,0,0,0-1,0h-6.1a10.38,10.38,0,0,0-1.07,0v-1a3.87,3.87,0,0,0,.62,0h.24V62.86c0-.16,0-.45,0-.87a7.24,7.24,0,0,0,.85,0Zm-2.23-1.75H139v-.73h-1.27Zm0-1.53H139V58h-1.26Zm.57,5.34h.91V62.88h-.91Zm1.77,0H141V62.88h-.92Zm1.4-4.84c0,.24,0,.3-.07.51h1.94v-.51Zm1.87-1.31H141.5v.51h1.83Zm-1.47,6.15h1V62.88h-1Z"/><path class="a19cc28f-abd5-40d7-83ab-a9aa46c7b34d" d="M149.45,62.37c-.52,1.18-1.11,1.72-1.86,1.72-1,0-1.79-1.06-1.79-2.53a3.91,3.91,0,0,1,1-2.66A4.11,4.11,0,0,1,150,57.62,3.29,3.29,0,0,1,153.57,61a3.52,3.52,0,0,1-2.22,3.41,5.65,5.65,0,0,1-1.43.38,3,3,0,0,0-.56-1.06,5,5,0,0,0,1.82-.51A2.56,2.56,0,0,0,152.45,61a2.25,2.25,0,0,0-1.13-2,2,2,0,0,0-.92-.28A12.94,12.94,0,0,1,149.45,62.37Zm-1.34-3.27a3.06,3.06,0,0,0-1.25,2.47c0,.75.32,1.34.73,1.34s.61-.38.94-1.17a11.86,11.86,0,0,0,.76-3.09A2.39,2.39,0,0,0,148.11,59.1Z"/><path class="a19cc28f-abd5-40d7-83ab-a9aa46c7b34d" d="M163,59.15a4,4,0,0,0-.65,0,7.29,7.29,0,0,1-1,3.58,6,6,0,0,0,1.87,1.44,3.9,3.9,0,0,0-.56,1,7.38,7.38,0,0,1-1.94-1.62,7.28,7.28,0,0,1-2.1,1.66,3.29,3.29,0,0,0-.52-.87c-.18.62-.41.77-1.19.77a5.82,5.82,0,0,1-.61,0,3.42,3.42,0,0,0-.17-1,2.35,2.35,0,0,0,.62.08c.35,0,.43,0,.49-.28a13.82,13.82,0,0,0,.18-3h-.88c-.18,2.25-.5,3.32-1.27,4.3a2.7,2.7,0,0,0-.72-.88,4.94,4.94,0,0,0,1-2.67,20.19,20.19,0,0,0,.16-2.6h-.15a6,6,0,0,0-.85,0v-1a5.91,5.91,0,0,0,.94.06h.62v-.56a3.85,3.85,0,0,0-.05-.81h1.1a3.61,3.61,0,0,0-.06.8v.57h.52a5.21,5.21,0,0,0,.87-.05v1c-.29,0-.56,0-.85,0h-1.13c0,.45,0,.77-.05,1h1a6.5,6.5,0,0,0,.74,0v.06a6.57,6.57,0,0,0,1-2.19,4.5,4.5,0,0,0,.21-1.13l1.05.17a2.26,2.26,0,0,0-.1.37c-.05.17-.18.68-.25.91H162a9.09,9.09,0,0,0,1,0Zm-2.92,3.54a8.3,8.3,0,0,1-.91-2.09,5.52,5.52,0,0,1-.37.51,2.62,2.62,0,0,0-.47-.63c0,.87,0,1.45,0,1.72a11.47,11.47,0,0,1-.18,2A5.46,5.46,0,0,0,160.09,62.69Zm-.15-3.59a4,4,0,0,1-.18.42,7,7,0,0,0,1,2.31,6.2,6.2,0,0,0,.68-2.73Z"/><path class="a19cc28f-abd5-40d7-83ab-a9aa46c7b34d" d="M163.83,60.27a3.67,3.67,0,0,0,.73,0h.68a5.18,5.18,0,0,0,.7,0,8.2,8.2,0,0,0,0,1v1.91a1.36,1.36,0,0,0,.52.58c.42.28.91.35,2.28.35a25.42,25.42,0,0,0,3.66-.2,4.17,4.17,0,0,0-.27,1.08l-1,0-2.08,0a10.38,10.38,0,0,1-2.28-.16,2.21,2.21,0,0,1-1.28-.88,9.14,9.14,0,0,1-1.06.88c-.07,0-.22.16-.31.23l-.44-1a4.84,4.84,0,0,0,1.32-.9v-2h-.5a3,3,0,0,0-.61,0Zm.79-3.33a12.74,12.74,0,0,1,1.58,1.65l-.76.74a9.36,9.36,0,0,0-1.55-1.71Zm2.78,2.25a6.81,6.81,0,0,0-.82.05v-1a7,7,0,0,0,.83,0h.36a4.57,4.57,0,0,0-.65-1.18l.87-.42a6.11,6.11,0,0,1,.68,1.2l-.79.4h1.47a7.84,7.84,0,0,0,.74-1.59l1,.33c-.11.19-.11.19-.32.61-.12.23-.22.42-.36.65h.53a4.75,4.75,0,0,0,.8,0v1a8.46,8.46,0,0,0-.87-.05h-1.31a7.32,7.32,0,0,1,0,1h1.74a5,5,0,0,0,.82,0v1a8.72,8.72,0,0,0-.9,0h-1.48a3.16,3.16,0,0,0,.76.91,4.67,4.67,0,0,0,1.69.81,2.78,2.78,0,0,0-.46,1,4.48,4.48,0,0,1-1.73-1,3.84,3.84,0,0,1-.86-1,3,3,0,0,1-.84,1.11,4.61,4.61,0,0,1-1.32.84,2.59,2.59,0,0,0-.64-.87,4.2,4.2,0,0,0,1.33-.72,2.48,2.48,0,0,0,.72-1.07h-1.24a7.34,7.34,0,0,0-.85,0v-1a7.46,7.46,0,0,0,.85,0h1.44c0-.31,0-.42,0-1Z"/><path class="a19cc28f-abd5-40d7-83ab-a9aa46c7b34d" d="M174.69,57.55a2.87,2.87,0,0,0-.05-.68h1.05a5.77,5.77,0,0,0,0,.68h2.87a3.39,3.39,0,0,0-.05-.68h1.05a5.63,5.63,0,0,0,0,.68h.6a6.77,6.77,0,0,0,1-.06v.93a7.77,7.77,0,0,0-1-.05h-.6v2.57h.73a7.73,7.73,0,0,0,1-.06v.93a6.66,6.66,0,0,0-1-.06h-.94a5.08,5.08,0,0,0,2.18,1,4.68,4.68,0,0,0-.45,1,7.35,7.35,0,0,1-1.63-.83v.62a6.35,6.35,0,0,0-.84,0H177.5v.64h2.23a7.16,7.16,0,0,0,1-.06v1a10.38,10.38,0,0,0-1.09-.05h-5.09c-.45,0-.79,0-1.1.05v-1a9,9,0,0,0,1,0h2v-.64h-.91a6.18,6.18,0,0,0-.83,0v-.63a6.52,6.52,0,0,1-1.64.86,3.27,3.27,0,0,0-.45-1,4.4,4.4,0,0,0,2.12-1H174a7.1,7.1,0,0,0-1,.06v-.93a6.81,6.81,0,0,0,1,.06h.74V58.37h-.5c-.39,0-.69,0-1,.05v-.93a7,7,0,0,0,1,.06Zm1.33,4.2a4.47,4.47,0,0,1-.87.87h1.4a3.53,3.53,0,0,0,0-.64h1a2.85,2.85,0,0,0-.05.64H179a4.46,4.46,0,0,1-.91-.87Zm2.5-3v-.38h-2.87v.38Zm0,1.08v-.36h-2.87v.36Zm0,1.11v-.39h-2.87v.39Z"/><path class="a19cc28f-abd5-40d7-83ab-a9aa46c7b34d" d="M189.44,61.44a7,7,0,0,0,.87,0v.89a7,7,0,0,0-.92,0h-2.72v.57h2.64a9.31,9.31,0,0,0,1,0v1a8.71,8.71,0,0,0-1.12,0h-2.55v.51a8.16,8.16,0,0,0,.06,1.07h-1.16a8.67,8.67,0,0,0,.05-1.06v-.52H183.2a8.62,8.62,0,0,0-1.12,0v-1a8.18,8.18,0,0,0,1,0h2.56v-.57c-.3,0-.52,0-.74,0,0-.28,0-.45,0-.87v-1.2c0-.28,0-.57,0-.77a3.08,3.08,0,0,1-.55.6,2.78,2.78,0,0,0-.35-.52l-.53.73a7.89,7.89,0,0,0-1.51-1l.65-.74a11.34,11.34,0,0,1,1.17.67,5.65,5.65,0,0,0,1.87-2.5l1,.26-.09.16c-.15.26-.15.26-.39.63h1.16a3.73,3.73,0,0,0,.51-1l.94.25-.1.17c-.17.29-.2.33-.38.6h.94a6.26,6.26,0,0,0,.92-.06v.9a6,6,0,0,0-.79,0h-1.22V59h.95a7,7,0,0,0,.82,0v.8l-.82,0h-.95v.45h.95a7.82,7.82,0,0,0,.82,0V61c-.25,0-.42,0-.82,0h-.95v.47ZM184.6,61a10.35,10.35,0,0,1-2,1.6l-.6-.9a3.45,3.45,0,0,0,.46-.24,7.22,7.22,0,0,0,1.65-1.29Zm-1.54-4.22a6.48,6.48,0,0,1,1.48,1l-.61.81a4.82,4.82,0,0,0-1.51-1Zm4.2,2.24v-.46h-1.41V59Zm-1.41,1.2h1.41v-.45h-1.41Zm0,1.21h1.41V61h-1.41Z"/><path class="a19cc28f-abd5-40d7-83ab-a9aa46c7b34d" d="M192.1,64.79a4.08,4.08,0,0,0,0-.43,16.31,16.31,0,0,1-.23-2.74,17.83,17.83,0,0,1,.37-3.57,6.38,6.38,0,0,0,.14-.85l1.2.13a12.23,12.23,0,0,0-.57,2.73,15.76,15.76,0,0,0-.14,2c0,.2,0,.28,0,.5a9,9,0,0,1,.48-1.2l.73.33a7.53,7.53,0,0,0-.81,2.77s0,.12,0,.24ZM196,61.18a2.1,2.1,0,0,0-.65,1.31c0,.52.51.8,1.46.8a6.37,6.37,0,0,0,2.17-.35l.09,1.16-.37.06a12.24,12.24,0,0,1-1.89.17,2.64,2.64,0,0,1-2.27-.8,1.52,1.52,0,0,1-.27-.89,2.93,2.93,0,0,1,.84-1.88Zm-1.51-3a6.64,6.64,0,0,0,1.7.15,10.23,10.23,0,0,0,2.48-.25l.06,1.11-.65.08a17.14,17.14,0,0,1-2,.11,10.84,10.84,0,0,1-1.64-.1Z"/><path class="a19cc28f-abd5-40d7-83ab-a9aa46c7b34d" d="M207.71,61.44a7,7,0,0,0,.87,0v.89a7,7,0,0,0-.92,0h-2.72v.57h2.64a9.31,9.31,0,0,0,1,0v1a8.71,8.71,0,0,0-1.12,0h-2.55v.51a8.16,8.16,0,0,0,.06,1.07h-1.16a8.67,8.67,0,0,0,0-1.06v-.52h-2.42a8.62,8.62,0,0,0-1.12,0v-1a8.18,8.18,0,0,0,1,0h2.56v-.57c-.3,0-.52,0-.75,0,0-.28,0-.45,0-.87v-1.2c0-.28,0-.57,0-.77a3.08,3.08,0,0,1-.55.6,2.78,2.78,0,0,0-.35-.52l-.54.73a7.52,7.52,0,0,0-1.5-1l.65-.74a11.34,11.34,0,0,1,1.17.67,5.65,5.65,0,0,0,1.87-2.5l1,.26-.09.16c-.15.26-.15.26-.39.63h1.16a3.73,3.73,0,0,0,.51-1l.94.25-.1.17c-.17.29-.2.33-.38.6h.94a6.26,6.26,0,0,0,.92-.06v.9a6,6,0,0,0-.79,0h-1.22V59h1a7,7,0,0,0,.82,0v.8l-.82,0h-1v.45h1a7.82,7.82,0,0,0,.82,0V61c-.25,0-.42,0-.82,0h-1v.47ZM202.87,61a10.35,10.35,0,0,1-2,1.6l-.6-.9a3.45,3.45,0,0,0,.46-.24,7.22,7.22,0,0,0,1.65-1.29Zm-1.54-4.22a6.48,6.48,0,0,1,1.48,1l-.61.81a4.82,4.82,0,0,0-1.51-1Zm4.2,2.24v-.46h-1.41V59Zm-1.41,1.2h1.41v-.45h-1.41Zm0,1.21h1.41V61h-1.41Z"/><path class="a19cc28f-abd5-40d7-83ab-a9aa46c7b34d" d="M213.87,58.2a4.58,4.58,0,0,0,.59,0c0,.32,0,.32,0,.58a10.89,10.89,0,0,1-.8,4,2.69,2.69,0,0,0,1.22,1,7.1,7.1,0,0,0,2.24.3c.32,0,.58,0,.94,0a4.28,4.28,0,0,0-.27,1c-2.59,0-3.73-.37-4.57-1.48a7.1,7.1,0,0,1-1.31,1.59,3.05,3.05,0,0,0-.57-.83,5.25,5.25,0,0,0,1.41-1.66,5.81,5.81,0,0,1-.34-1.2,4.63,4.63,0,0,1-.4.74,3.56,3.56,0,0,0-.54-.78l-.24.14v2.71c0,.69-.22.9-.95.9h-.62a3.74,3.74,0,0,0-.18-.94,3.77,3.77,0,0,0,.59.06c.21,0,.27,0,.27-.21V62l-.46.18-.18.07-.12,0-.17-1h.06a4.72,4.72,0,0,0,.87-.23V59.43h-.22a4.26,4.26,0,0,0-.63,0v-1a2.93,2.93,0,0,0,.62,0h.23v-.7a4.86,4.86,0,0,0-.06-.94h1a5.79,5.79,0,0,0-.05.93v.71h.15a3,3,0,0,0,.46,0v.94l-.46,0h-.15v1.24l.42-.21v.65a7.75,7.75,0,0,0,.59-1.78,12.34,12.34,0,0,0,.23-2.17s0-.08,0-.23l.92.11a5.13,5.13,0,0,0-.07.67c0,.23,0,.3-.05.49Zm-.8.92c-.08.42-.16.78-.26,1.14a7.58,7.58,0,0,0,.33,1.47,9.7,9.7,0,0,0,.43-2.61Zm2.61-.91a19.72,19.72,0,0,1-.21,3.62,5.09,5.09,0,0,1-.66,1.69,3.61,3.61,0,0,0-.78-.62c.62-.82.8-1.84.8-4.35a8.27,8.27,0,0,0-.05-1.26,4.45,4.45,0,0,0,.65,0h.94a3.57,3.57,0,0,0,.62,0,5.86,5.86,0,0,0,0,.81v4.27c0,.09,0,.12.11.12s.15,0,.16-.14a11.14,11.14,0,0,0,.05-1.24v-.24a1.75,1.75,0,0,0,.66.26,6.13,6.13,0,0,1-.2,1.95c-.1.22-.32.29-.84.29s-.82-.14-.82-.68V58.21Z"/></svg>