<svg id="85df57c5-5c6c-43a3-831c-386222d8fdc4" data-name="foot" xmlns="http://www.w3.org/2000/svg" width="321.108" height="43.259" viewBox="0 0 321.108 43.259"><title>foot_tel</title><path d="M4821.275,2843.963q2.355,3.483,2.272,9.32a15.757,15.757,0,0,1-1.439,6.859,11.6,11.6,0,0,1-3.9,4.712,10.241,10.241,0,0,1-11.488-.146,10.5,10.5,0,0,1-3.44-4.837,19.43,19.43,0,0,1-1.083-6.631,14.311,14.311,0,0,1,1.543-6.817,11.008,11.008,0,0,1,4.107-4.421,10.725,10.725,0,0,1,5.567-1.521Q4818.918,2840.481,4821.275,2843.963Zm-13.97,1.105q-1.856,2.752-1.855,7.881a16.917,16.917,0,0,0,1.9,8.382,6.543,6.543,0,0,0,11.176.459q1.813-2.918,1.814-8.34a15.67,15.67,0,0,0-1.813-8.132,6.057,6.057,0,0,0-5.567-3A6.347,6.347,0,0,0,4807.306,2845.068Z" transform="translate(-4742.94 -2829.832)" style="fill:#7d7d7d"/><path d="M4833.688,2864.083v-19.849q-1,.292-3.962,1.042-1.919.5-1.626,0.417l-0.292-1.626a41.111,41.111,0,0,0,4.691-1.918,19.176,19.176,0,0,0,3.523-1.918l0.834,0.292-0.043,23.6,5.713,0.417v1.418H4827.6v-1.418Z" transform="translate(-4742.94 -2829.832)" style="fill:#7d7d7d"/><path d="M4856.961,2856.474q3.94-4.358,3.94-8.194a6.463,6.463,0,0,0-1.479-4.149,5.294,5.294,0,0,0-4.316-1.73,9.3,9.3,0,0,0-3.982,1,12.464,12.464,0,0,0-3.315,2.168l-0.792-1.292a11.316,11.316,0,0,1,3.815-2.836,11.9,11.9,0,0,1,5.358-1.251,8.937,8.937,0,0,1,4.441,1,6.406,6.406,0,0,1,2.606,2.585,7.237,7.237,0,0,1,.834,3.42,12.1,12.1,0,0,1-1.689,5.816,25.442,25.442,0,0,1-4.629,5.922,34.914,34.914,0,0,1-6.61,5.024l12.386-.709,1.918-3.252,1.418,0.458-1.293,5.5h-18.14l-0.459-1.334A47.119,47.119,0,0,0,4856.961,2856.474Z" transform="translate(-4742.94 -2829.832)" style="fill:#7d7d7d"/><path d="M4890.021,2843.963q2.355,3.483,2.272,9.32a15.757,15.757,0,0,1-1.439,6.859,11.6,11.6,0,0,1-3.9,4.712,10.241,10.241,0,0,1-11.488-.146,10.5,10.5,0,0,1-3.44-4.837,19.43,19.43,0,0,1-1.083-6.631,14.311,14.311,0,0,1,1.543-6.817,11.008,11.008,0,0,1,4.107-4.421,10.725,10.725,0,0,1,5.567-1.521Q4887.664,2840.481,4890.021,2843.963Zm-13.97,1.105q-1.856,2.752-1.855,7.881a16.917,16.917,0,0,0,1.9,8.382,6.543,6.543,0,0,0,11.176.459q1.813-2.918,1.814-8.34a15.67,15.67,0,0,0-1.813-8.132,6.057,6.057,0,0,0-5.567-3A6.347,6.347,0,0,0,4876.051,2845.068Z" transform="translate(-4742.94 -2829.832)" style="fill:#7d7d7d"/><path d="M4915.607,2848.571v2.418h-17.847v-2.418h17.847Z" transform="translate(-4742.94 -2829.832)" style="fill:#7d7d7d"/><path d="M4924.21,2864.083v-19.849q-1,.292-3.962,1.042-1.919.5-1.626,0.417l-0.292-1.626a41.111,41.111,0,0,0,4.691-1.918,19.176,19.176,0,0,0,3.523-1.918l0.834,0.292-0.043,23.6,5.713,0.417v1.418h-14.929v-1.418Z" transform="translate(-4742.94 -2829.832)" style="fill:#7d7d7d"/><path d="M4953.53,2836.145a23.874,23.874,0,0,0-7.861,4.107,19.082,19.082,0,0,0-4.982,5.88,14.933,14.933,0,0,0-1.835,6.442,17.2,17.2,0,0,0,1.542,8.569,6.048,6.048,0,0,0,5.838,3.44,5.725,5.725,0,0,0,3.711-1.209,7.312,7.312,0,0,0,2.231-3.045,9.843,9.843,0,0,0,.73-3.669,10.368,10.368,0,0,0-1.522-6.089,4.579,4.579,0,0,0-3.856-2.126,7.9,7.9,0,0,0-2.731.375,6.7,6.7,0,0,0-1.772,1l-0.834-1.376a5.848,5.848,0,0,1,2.377-1.48,9.552,9.552,0,0,1,3.628-.729,6.727,6.727,0,0,1,4.19,1.313,8.188,8.188,0,0,1,2.606,3.356,10.688,10.688,0,0,1,.876,4.253,12.112,12.112,0,0,1-1.231,5.255,11.143,11.143,0,0,1-3.544,4.274,8.917,8.917,0,0,1-5.4,1.688,9.226,9.226,0,0,1-5.442-1.626,10.464,10.464,0,0,1-3.544-4.337,14.271,14.271,0,0,1-1.229-5.963,17.274,17.274,0,0,1,2.586-9.216,22.518,22.518,0,0,1,6.609-6.943,21.84,21.84,0,0,1,8.193-3.523Z" transform="translate(-4742.94 -2829.832)" style="fill:#7d7d7d"/><path d="M4978.523,2848.571v2.418h-17.847v-2.418h17.847Z" transform="translate(-4742.94 -2829.832)" style="fill:#7d7d7d"/><path d="M5001.855,2836.145a23.874,23.874,0,0,0-7.861,4.107,19.082,19.082,0,0,0-4.982,5.88,14.933,14.933,0,0,0-1.835,6.442,17.2,17.2,0,0,0,1.542,8.569,6.048,6.048,0,0,0,5.838,3.44,5.725,5.725,0,0,0,3.711-1.209,7.312,7.312,0,0,0,2.231-3.045,9.843,9.843,0,0,0,.73-3.669,10.368,10.368,0,0,0-1.522-6.089,4.579,4.579,0,0,0-3.856-2.126,7.9,7.9,0,0,0-2.731.375,6.7,6.7,0,0,0-1.772,1l-0.834-1.376a5.848,5.848,0,0,1,2.377-1.48,9.552,9.552,0,0,1,3.628-.729,6.727,6.727,0,0,1,4.19,1.313,8.188,8.188,0,0,1,2.606,3.356,10.688,10.688,0,0,1,.876,4.253,12.112,12.112,0,0,1-1.231,5.255,11.143,11.143,0,0,1-3.544,4.274,8.917,8.917,0,0,1-5.4,1.688,9.226,9.226,0,0,1-5.442-1.626,10.464,10.464,0,0,1-3.544-4.337,14.271,14.271,0,0,1-1.229-5.963,17.274,17.274,0,0,1,2.586-9.216,22.518,22.518,0,0,1,6.609-6.943,21.84,21.84,0,0,1,8.193-3.523Z" transform="translate(-4742.94 -2829.832)" style="fill:#7d7d7d"/><path d="M5010.477,2871.339a12.11,12.11,0,0,0,5.567-1.4,12.52,12.52,0,0,0,4.462-3.753,8.455,8.455,0,0,0,1.73-5.108q0-3.71-1.9-5.5a7.136,7.136,0,0,0-5.108-1.794,17.093,17.093,0,0,0-5.879,1.168l-0.5-.542,1.626-13.636h10.8l0.584-.334h2l-0.792,3.086H5012.9l-1.5,9.591a12.5,12.5,0,0,1,5.421-1.293,9.524,9.524,0,0,1,4.357,1,7.648,7.648,0,0,1,3.169,3,9.38,9.38,0,0,1,1.188,4.879,10.3,10.3,0,0,1-1.918,5.691,15.25,15.25,0,0,1-5.212,4.8,14.286,14.286,0,0,1-7.256,1.9,8.151,8.151,0,0,1-2.127-.25l0.083-1.585A8.347,8.347,0,0,0,5010.477,2871.339Z" transform="translate(-4742.94 -2829.832)" style="fill:#7d7d7d"/><path d="M5036.031,2864.083v-19.849q-1,.292-3.962,1.042-1.919.5-1.626,0.417l-0.292-1.626a41.111,41.111,0,0,0,4.691-1.918,19.177,19.177,0,0,0,3.523-1.918l0.834,0.292-0.043,23.6,5.713,0.417v1.418h-14.929v-1.418Z" transform="translate(-4742.94 -2829.832)" style="fill:#7d7d7d"/><path d="M5055.208,2864.083v-19.849q-1,.292-3.962,1.042-1.919.5-1.626,0.417l-0.292-1.626a41.111,41.111,0,0,0,4.691-1.918,19.176,19.176,0,0,0,3.523-1.918l0.834,0.292-0.043,23.6,5.713,0.417v1.418h-14.929v-1.418Z" transform="translate(-4742.94 -2829.832)" style="fill:#7d7d7d"/><path d="M4768.555,2834.512c-2.051-.072-4.823-0.072-7.047,0a21.562,21.562,0,0,0-9.258,2.239,19.127,19.127,0,0,0-9.31-2.239v-4.68h44.186v4.68a19.154,19.154,0,0,0-9.316,2.239,21.312,21.312,0,0,0-9.254-2.239m5.321,5.268a8.454,8.454,0,0,0-2.553,6.007c0,4.006,3.1,7.341,6.71,7.341a7.171,7.171,0,0,0,6.873-7.341,8.627,8.627,0,0,0-.885-3.334,12.467,12.467,0,0,0-3.883-4.309,21.3,21.3,0,0,1,6.988-1.393V2857.5H4742.94v-20.744a22.915,22.915,0,0,1,7.04,1.393,12.037,12.037,0,0,0-3.936,4.309,9.765,9.765,0,0,0-.666,3.334c0,4.006,2.888,7.341,6.709,7.341,3.771,0,6.656-3.334,6.656-7.341a8.468,8.468,0,0,0-2.552-6.007,11.418,11.418,0,0,0-1.726-1.515,20.332,20.332,0,0,1,7.043-1.515,69.433,69.433,0,0,1,7.047,0,20.842,20.842,0,0,1,7.038,1.515,9.8,9.8,0,0,0-1.717,1.515m-24.561,21.112h-4.491v2.3h3.936v1.7h-3.936v4.121h-1.884v-9.765h6.375v1.636Zm5.317-19.587c1.281,1.506,1.889,2.419,1.889,4.482a4.769,4.769,0,0,1-4.435,4.916,4.66,4.66,0,0,1-4.491-4.916,6.566,6.566,0,0,1,1-3.156,10.235,10.235,0,0,1,3.718-3.273,9.909,9.909,0,0,1,2.32,1.947m-3.1,20.556v1.336a2.24,2.24,0,0,1,2.052-1.516v1.884c-0.668,0-2.052-.187-2.052,1.335v4.121h-1.719v-7.16h1.719Zm5.427,6.007a1.355,1.355,0,0,0,1.279-.911h1.721a3.2,3.2,0,0,1-3.052,2.434c-1.607,0-2.984-1.64-2.984-3.523,0-2.916,1.377-4.121,2.934-4.187a2.728,2.728,0,0,1,2.654,1.516,6.145,6.145,0,0,1,.613,2.8h-4.548a1.822,1.822,0,0,0,1.384,1.872m0-4.671a1.362,1.362,0,0,0-1.326,1.521h2.769a1.449,1.449,0,0,0-1.443-1.521m2.5-10.252h2.217v-13.528h-2.217v13.528Zm4.153,14.923a1.357,1.357,0,0,0,1.28-.911h1.717a3.187,3.187,0,0,1-3.052,2.434,3.362,3.362,0,0,1-2.99-3.523c0-2.916,1.383-4.121,2.937-4.187a2.739,2.739,0,0,1,2.661,1.516,6.21,6.21,0,0,1,.61,2.8h-4.548a1.824,1.824,0,0,0,1.384,1.872m0-4.671a1.361,1.361,0,0,0-1.326,1.521h2.768a1.449,1.449,0,0,0-1.442-1.521m-0.882-10.252h8.09V2850.7h-4.988l3.936-4.126a4.661,4.661,0,0,0,1.052-3.03,4.143,4.143,0,1,0-8.257,0v0.541h2.217c0-1.277.661-2.606,2.048-2.606a1.877,1.877,0,0,1,1.724,2.065,3.868,3.868,0,0,1-1.552,2.845l-4.271,4.312v2.242Zm9.422,6.311c1.94,0,3.266,2.548,3.266,4.494,0,3.633-1.825,5.271-3.433,5.271h-3.941v-9.765h4.108Zm-0.832,8.071c0.89,0,2.221-.3,2.221-3.4,0-1.207-.5-3.036-2.053-3.036h-1.72v6.434h1.552Zm10.313-24.7a6.623,6.623,0,0,1,1.053,3.156,4.833,4.833,0,0,1-4.655,4.916,4.77,4.77,0,0,1-4.489-4.916c0-2.064.721-3.03,1.878-4.482a10.556,10.556,0,0,1,2.388-2,11.486,11.486,0,0,1,3.826,3.331m-3.6,18.261h-1.721v-1.636h1.721v1.636Zm0,8.128h-1.721v-7.161h1.721v7.161Zm4.821-.794a2.694,2.694,0,0,1-2.274,1.164c-1.389,0-1.879-.853-1.879-2.249,0-.968.326-2.242,1.879-2.242,0.163,0,2.057.123,2.057-1.15,0-.553-0.339-0.725-1-0.725a1.061,1.061,0,0,0-1.222,1.084h-1.556c0-2.248,1.885-2.428,2.778-2.428,1.6,0,2.768.609,2.768,2.247v3.94a1.652,1.652,0,0,0,.34,1.153h-1.721a1.028,1.028,0,0,1-.168-0.794m-1.72-2.232a1.044,1.044,0,0,0-.721,1.147c0,0.546.33,0.846,1.055,0.726,0.993-.18,1.168-0.911,1.168-2.246-0.339.373-1,.19-1.5,0.373m5.992,3.025H4785.4v-9.765h1.721v9.765Z" transform="translate(-4742.94 -2829.832)" style="fill:#7d7d7d"/></svg>