<svg xmlns="http://www.w3.org/2000/svg" width="43.73" height="18.74" viewBox="0 0 43.73 18.74"><defs><style>.\32 789940a-c3fe-4ef4-8132-8d1072fc8de8{fill:#ada300;}</style></defs><title>header_tel</title><g id="f0f015e5-c738-4dbb-841c-b404cbd82317" data-name="レイヤー 2"><g id="0d36cf6d-9a92-4fb1-98d3-758c82673a34" data-name="レイヤー 3"><path class="2789940a-c3fe-4ef4-8132-8d1072fc8de8" d="M16.65,8.6V6H11.34V9.89H9V6H3.81V8.7H1.54V4.29H8.92v-1H3.12V1.48H17.58V3.27H11.36v1h7.69V8.6Zm2.71,11.15a54.69,54.69,0,0,1-5.85.37c-1.84,0-4.55,0-4.55-2.54H3.14v-7H17.53v6.87H11.2c0,.94,2.17.86,2.77.86a25,25,0,0,0,5.64-.7ZM4.53,7.92V6.69H8.1V7.92Zm0,1.91V8.6H8.1V9.83ZM8.94,12H5.33v1.28H8.94Zm0,2.79H5.33V16H9ZM15.28,12H11.2v1.28h4.08Zm0,2.79H11.2V16h4.1Zm-3-6.91V6.69h3.67V7.92Zm0,1.93V8.6h3.67V9.85Z" transform="translate(-1.54 -1.38)"/><path class="2789940a-c3fe-4ef4-8132-8d1072fc8de8" d="M26.63,6V4.23h2.81V1.42l2.4.16c.14,0,.33.09.33.25s-.21.29-.35.33V4.23H34V6Zm.67,13.52V13.09h6.2v6.42ZM27.76,9V7.31h5.37V9Zm0,2.83v-1.7h5.35v1.7Zm3.67,2.81h-2V18h2Zm9.1-5.81v2.88h3.71v7.85H34.81V11.72h3.4V8.84H34V7h4.24V4.39c-1.16.13-2.33.21-3.5.23l-.86-1.76c2.79-.13,7-.33,9.49-1.48A19.16,19.16,0,0,1,45,3.45c0,.17-.14.23-.28.23a.74.74,0,0,1-.39-.11c-1.26.25-2.53.41-3.8.58V7h4.76V8.84Zm1.54,4.54H36.9v4.45h5.17Z" transform="translate(-1.54 -1.38)"/></g></g></svg>