<svg xmlns="http://www.w3.org/2000/svg" width="53.5" height="18.72" viewBox="0 0 53.5 18.72"><defs><style>.b77875af-0633-4e64-ba04-a62c67c5c056{fill:#a268b1;}</style></defs><title>header_plan</title><g id="15a0d8b5-eaf6-4455-aef7-5e9315a5b56b" data-name="レイヤー 2"><g id="940a9fc1-77de-41f6-8cd7-9db1f842ca98" data-name="レイヤー 3"><path class="b77875af-0633-4e64-ba04-a62c67c5c056" d="M16.1,9.83a12.62,12.62,0,0,1-4.6,6.66,16.21,16.21,0,0,1-6.33,2.73l-2-2.13a16.74,16.74,0,0,0,6.56-2.54C12,12.88,13.41,10.4,14,6.79L2.34,6.92V4.52l12.51,0a3.09,3.09,0,0,0,2,1.41A20.07,20.07,0,0,1,16.1,9.83Zm1.39-4.55a2.39,2.39,0,0,1,0-4.78,2.41,2.41,0,0,1,2.4,2.4A2.42,2.42,0,0,1,17.49,5.28Zm0-3.63A1.23,1.23,0,0,0,16.24,2.9a1.24,1.24,0,0,0,2.48,0A1.24,1.24,0,0,0,17.47,1.65Z" transform="translate(-2.34 -0.5)"/><path class="b77875af-0633-4e64-ba04-a62c67c5c056" d="M36.8,9.13c-.6,3.41-2.09,6.07-5.21,7.79a18.25,18.25,0,0,1-6.87,2L23.3,16.8a18.48,18.48,0,0,0,5.95-1.41,7.87,7.87,0,0,0,4.65-6l-12.11.1V7.2H37C37,7.84,36.9,8.5,36.8,9.13ZM23.26,5.21V2.84H35.91V5.21Z" transform="translate(-2.34 -0.5)"/><path class="b77875af-0633-4e64-ba04-a62c67c5c056" d="M54.52,10.32a14.58,14.58,0,0,1-5.08,6A14.73,14.73,0,0,1,45.6,18a22.53,22.53,0,0,1-4,.8l-1.27-2.3a21.94,21.94,0,0,0,3.61-.59,12.82,12.82,0,0,0,4.51-2,12.37,12.37,0,0,0,3.71-4.74,22.72,22.72,0,0,0,1.38-3.71L55.83,7A19.61,19.61,0,0,1,54.52,10.32ZM47,8a30.29,30.29,0,0,0-2.83-1.1C43,6.47,41.74,6,40.68,5.77l.92-2.52a51.94,51.94,0,0,1,6.56,2.48Z" transform="translate(-2.34 -0.5)"/></g></g></svg>