<svg xmlns="http://www.w3.org/2000/svg" width="73.5" height="18.76" viewBox="0 0 73.5 18.76"><defs><style>.\39 4acd94a-022d-4fd2-b3a8-e22b3b3da64e{fill:#2fcff4;}</style></defs><title>header_support</title><g id="9c68c0dc-080c-4546-afcc-54b0c2e9a8f2" data-name="レイヤー 2"><g id="65c5bfa6-6d03-4207-88a1-eb73016f9db5" data-name="レイヤー 3"><path class="94acd94a-022d-4fd2-b3a8-e22b3b3da64e" d="M15.09,8.91c0,.2,0,.43,0,.63a13.39,13.39,0,0,1-.28,2.71,7.94,7.94,0,0,1-3.49,5.23A13.38,13.38,0,0,1,7.44,19L5.78,17.29a12.84,12.84,0,0,0,4.08-1.62c2-1.35,2.69-3.26,2.75-6.52V8.91H7.83v4.22H5.31V8.91H1.5V6.69H5.29V2.63H7.83V6.69h4.76V2.49h2.57v4.2H19V8.91Z" transform="translate(-1.5 -0.42)"/><path class="94acd94a-022d-4fd2-b3a8-e22b3b3da64e" d="M22.64,17.56l-1.88-1.74a9.62,9.62,0,0,0,3.71-6.4L27,9.6C26.52,12.23,24.82,15.88,22.64,17.56Zm8.58-9.7V19.18H28.67V7.86H22V5.6h6.64V2.22h2.59V5.6H38V7.86Zm6,9.7c-2.15-1.68-3.87-5.35-4.32-8l2.52-.18a9.37,9.37,0,0,0,3.73,6.4ZM36.4,5a2.27,2.27,0,1,1,2.26-2.3A2.27,2.27,0,0,1,36.4,5Zm0-3.45a1.19,1.19,0,0,0-1.19,1.15,1.21,1.21,0,0,0,1.19,1.21,1.19,1.19,0,0,0,1.19-1.21A1.17,1.17,0,0,0,36.38,1.5Z" transform="translate(-1.5 -0.42)"/><path class="94acd94a-022d-4fd2-b3a8-e22b3b3da64e" d="M40.74,11.65V9.17H57.51v2.48Z" transform="translate(-1.5 -0.42)"/><path class="94acd94a-022d-4fd2-b3a8-e22b3b3da64e" d="M74.14,12.45a41.07,41.07,0,0,1-5.91-1.29c-.82-.24-1.62-.55-2.44-.86V19H63.15V2.32h2.64V7.41A17,17,0,0,0,71,9.28c1.52.34,3,.55,4,.67Z" transform="translate(-1.5 -0.42)"/></g></g></svg>