<svg xmlns="http://www.w3.org/2000/svg" width="55.43" height="17.04" viewBox="0 0 55.43 17.04"><defs><style>.\34 0718246-089c-46ff-a258-87025523417a{fill:#6caf64;}</style></defs><title>header_sp</title><g id="631aa245-99c2-4984-b6e7-6755f7fcecbe" data-name="レイヤー 2"><g id="74ddd9b8-206c-482f-8fa6-68d0f57f7f8e" data-name="レイヤー 3"><path class="40718246-089c-46ff-a258-87025523417a" d="M17.58,18.83A13.17,13.17,0,0,1,16,17.77a20.31,20.31,0,0,1-4.52-4.68A21.12,21.12,0,0,1,9,15.74,16.46,16.46,0,0,1,3.4,19L1.62,17a19.74,19.74,0,0,0,2.75-1.11,17,17,0,0,0,3.34-2.28,16.41,16.41,0,0,0,4.72-7.73l-8.78.15V3.74H15.77A20.82,20.82,0,0,1,13,10.88c.74,1.7,2.75,3.56,4.58,4.88a17.42,17.42,0,0,0,1.76,1Z" transform="translate(-1.62 -2.06)"/><path class="40718246-089c-46ff-a258-87025523417a" d="M35.93,7.2a15.45,15.45,0,0,1-5.86,7.67c1,.74,2.25,1.71,3.11,2.44L31.4,19.06c-1.33-1.11-2.93-2.48-4.35-3.55a46.66,46.66,0,0,0-4.63-3.26L24,10.32c1.43.92,2.83,1.95,4.18,3a12.94,12.94,0,0,0,5.15-6.83l-13.23.2V4.23l16.45,0A10.12,10.12,0,0,1,35.93,7.2Z" transform="translate(-1.62 -2.06)"/><path class="40718246-089c-46ff-a258-87025523417a" d="M40.58,17.46l-1.93-1.77a9.51,9.51,0,0,0,3.73-6.37l2.53.18C44.46,12.11,42.73,15.78,40.58,17.46Zm8.57-9.72V19.1h-2.6V7.74H39.92V5.48h6.61V2.06h2.64V5.48h6.69V7.74Zm6,9.72c-2.11-1.68-3.83-5.35-4.29-8l2.53-.18a9.41,9.41,0,0,0,3.69,6.37Z" transform="translate(-1.62 -2.06)"/></g></g></svg>