<svg xmlns="http://www.w3.org/2000/svg" width="51.35" height="17.68" viewBox="0 0 51.35 17.68"><defs><style>.f882e0b2-3070-4331-9390-249d1c626dea{fill:#f7b751;}</style></defs><title>header_net</title><g id="0c286a1a-07d2-4567-a57b-046120d59b8f" data-name="レイヤー 2"><g id="853eec3c-8275-4231-9c0a-75611167df5e" data-name="レイヤー 3"><path class="f882e0b2-3070-4331-9390-249d1c626dea" d="M18.07,15.18a23.85,23.85,0,0,1-6.48-2.36v6.36H9V12.66A31.83,31.83,0,0,1,3,15.3l-1.44-2A28.55,28.55,0,0,0,9.52,9.71a13.43,13.43,0,0,0,3.34-3c-3.08.06-6.26.08-9.58.1V4.7H8.9V1.91h2.65V4.72h4.94V6.1a15.66,15.66,0,0,1-4.37,4.53A22.51,22.51,0,0,0,19,12.86Z" transform="translate(-1.6 -1.91)"/><path class="f882e0b2-3070-4331-9390-249d1c626dea" d="M23.78,13.13c-.68-1.43-1.6-3.57-2.4-4.92.8-.33,1.87-.72,2.44-1,.55,1.23,1.43,3.24,2.05,4.88ZM34.69,9.79c-.84,3.87-2.46,6.66-6.17,8.43a16.45,16.45,0,0,1-4.17,1.37l-1.52-1.8a18.34,18.34,0,0,0,4.05-1.17c4.3-1.85,5.35-5.46,5.72-9.74a22.06,22.06,0,0,1,2.5.69A21.61,21.61,0,0,1,34.69,9.79ZM27.74,12c-.6-1.72-1.28-3.4-2-5.06l2.37-.84a37.44,37.44,0,0,1,1.79,5Z" transform="translate(-1.6 -1.91)"/><path class="f882e0b2-3070-4331-9390-249d1c626dea" d="M52.09,12.45a41.07,41.07,0,0,1-5.91-1.29c-.82-.24-1.62-.55-2.44-.86V19H41.09V2.32h2.65V7.41a17,17,0,0,0,5.17,1.87c1.51.34,3,.55,4,.67Z" transform="translate(-1.6 -1.91)"/></g></g></svg>